# Concept wellness - schematic massing model
# Exportat pentru Blender / Lumion / Twinmotion / SketchUp
# 1 unitate = 1 metru
mtllib concept_wellness.mtl

v -4.4000 0.0000 -8.4500
v 6.8000 0.0000 -8.4500
v 6.8000 3.0000 -8.4500
v -4.4000 3.0000 -8.4500
v -4.4000 0.0000 -4.7500
v 6.8000 0.0000 -4.7500
v 6.8000 3.0000 -4.7500
v -4.4000 3.0000 -4.7500
v 7.7000 0.0000 -5.6000
v 12.1000 0.0000 -5.6000
v 12.1000 3.4000 -5.6000
v 7.7000 3.4000 -5.6000
v 7.7000 0.0000 1.8000
v 12.1000 0.0000 1.8000
v 12.1000 3.4000 1.8000
v 7.7000 3.4000 1.8000
v -18.2000 0.0000 -0.7500
v -13.4000 0.0000 -0.7500
v -13.4000 3.2000 -0.7500
v -18.2000 3.2000 -0.7500
v -18.2000 0.0000 7.5500
v -13.4000 0.0000 7.5500
v -13.4000 3.2000 7.5500
v -18.2000 3.2000 7.5500
v -5.0500 0.0000 0.7500
v 6.8500 0.0000 0.7500
v 6.8500 6.0000 0.7500
v -5.0500 6.0000 0.7500
v -5.0500 0.0000 8.4500
v 6.8500 0.0000 8.4500
v 6.8500 6.0000 8.4500
v -5.0500 6.0000 8.4500
v -4.8000 3.0000 -4.3500
v -4.8000 3.0000 -8.8500
v -4.8000 4.8000 -6.6000
v 7.2000 3.0000 -4.3500
v 7.2000 3.0000 -8.8500
v 7.2000 4.8000 -6.6000
v 7.3000 3.4000 -6.0000
v 12.5000 3.4000 -6.0000
v 9.9000 5.6000 -6.0000
v 7.3000 3.4000 2.2000
v 12.5000 3.4000 2.2000
v 9.9000 5.6000 2.2000
v -18.6000 3.2000 -1.1500
v -13.0000 3.2000 -1.1500
v -15.8000 5.3000 -1.1500
v -18.6000 3.2000 7.9500
v -13.0000 3.2000 7.9500
v -15.8000 5.3000 7.9500
v -5.4500 6.0000 8.8500
v -5.4500 6.0000 0.3500
v -5.4500 8.4000 4.6000
v 7.2500 6.0000 8.8500
v 7.2500 6.0000 0.3500
v 7.2500 8.4000 4.6000
v -3.7000 0.5700 -8.5000
v 6.1000 0.5700 -8.5000
v 6.1000 2.4300 -8.5000
v -3.7000 2.4300 -8.5000
v -3.7000 0.5700 -8.4400
v 6.1000 0.5700 -8.4400
v 6.1000 2.4300 -8.4400
v -3.7000 2.4300 -8.4400
v 7.6500 0.6460 -5.0000
v 7.7100 0.6460 -5.0000
v 7.7100 2.7540 -5.0000
v 7.6500 2.7540 -5.0000
v 7.6500 0.6460 1.2000
v 7.7100 0.6460 1.2000
v 7.7100 2.7540 1.2000
v 7.6500 2.7540 1.2000
v -3.5500 0.0000 -12.9500
v 2.9500 0.0000 -12.9500
v 2.9500 0.0800 -12.9500
v -3.5500 0.0800 -12.9500
v -3.5500 0.0000 -8.7500
v 2.9500 0.0000 -8.7500
v 2.9500 0.0800 -8.7500
v -3.5500 0.0800 -8.7500
v 4.8000 0.0000 -4.0000
v 7.4000 0.0000 -4.0000
v 7.4000 0.0600 -4.0000
v 4.8000 0.0600 -4.0000
v 4.8000 0.0000 0.2000
v 7.4000 0.0000 0.2000
v 7.4000 0.0600 0.2000
v 4.8000 0.0600 0.2000
v -15.6268 0.0000 -2.7000
v -2.1732 0.0000 -2.7000
v -2.1732 0.0500 -2.7000
v -15.6268 0.0500 -2.7000
v -15.6268 0.0000 -0.5000
v -2.1732 0.0000 -0.5000
v -2.1732 0.0500 -0.5000
v -15.6268 0.0500 -0.5000

o Zona_de_distractie
usemtl mat_lemn
f 1 2 3 4
f 6 5 8 7
f 5 1 4 8
f 2 6 7 3
f 4 3 7 8
f 5 6 2 1

o Zona_SPA
usemtl mat_piatra
f 9 10 11 12
f 14 13 16 15
f 13 9 12 16
f 10 14 15 11
f 12 11 15 16
f 13 14 10 9

o Garaj
usemtl mat_lemn_garaj
f 17 18 19 20
f 22 21 24 23
f 21 17 20 24
f 18 22 23 19
f 20 19 23 24
f 21 22 18 17

o Cladire_existenta_CONTEXT
usemtl mat_context
f 25 26 27 28
f 30 29 32 31
f 29 25 28 32
f 26 30 31 27
f 28 27 31 32
f 29 30 26 25

o Acoperis_zona_distractie
usemtl mat_acoperis
f 33 34 35
f 38 37 36
f 33 36 37 34
f 33 35 38 36
f 34 37 38 35

o Acoperis_SPA
usemtl mat_acoperis
f 39 40 41
f 44 43 42
f 39 42 43 40
f 39 41 44 42
f 40 43 44 41

o Acoperis_garaj
usemtl mat_acoperis
f 45 46 47
f 50 49 48
f 45 48 49 46
f 45 47 50 48
f 46 49 50 47

o Acoperis_cladire_existenta_CONTEXT
usemtl mat_context
f 51 52 53
f 56 55 54
f 51 54 55 52
f 51 53 56 54
f 52 55 56 53

o Vitraj_zona_distractie
usemtl mat_sticla
f 57 58 59 60
f 62 61 64 63
f 61 57 60 64
f 58 62 63 59
f 60 59 63 64
f 61 62 58 57

o Vitraj_SPA
usemtl mat_sticla
f 65 66 67 68
f 70 69 72 71
f 69 65 68 72
f 66 70 71 67
f 68 67 71 72
f 69 70 66 65

o Terasa
usemtl mat_pavaj
f 73 74 75 76
f 78 77 80 79
f 77 73 76 80
f 74 78 79 75
f 76 75 79 80
f 77 78 74 73

o Piscina_exterioara
usemtl mat_apa
f 81 82 83 84
f 86 85 88 87
f 85 81 84 88
f 82 86 87 83
f 84 83 87 88
f 85 86 82 81

o Alee_pavata
usemtl mat_pavaj
f 89 90 91 92
f 94 93 96 95
f 93 89 92 96
f 90 94 95 91
f 92 91 95 96
f 93 94 90 89

