# Casa Dealu Negru - zona wellness, revizia 3
# Generat de tools/model_rev3.py; 1 unitate = 1 metru
mtllib zona_wellness_rev3.mtl

v -0.1500 0.0000 -0.1500
v 11.5000 0.0000 -0.1500
v 11.5000 0.1400 -0.1500
v -0.1500 0.1400 -0.1500
v 11.5000 0.0000 -0.1500
v 11.5000 0.0000 6.1500
v 11.5000 0.1400 6.1500
v 11.5000 0.1400 -0.1500
v 11.5000 0.0000 6.1500
v -0.1500 0.0000 6.1500
v -0.1500 0.1400 6.1500
v 11.5000 0.1400 6.1500
v -0.1500 0.0000 6.1500
v -0.1500 0.0000 -0.1500
v -0.1500 0.1400 -0.1500
v -0.1500 0.1400 6.1500
v -0.1500 0.1400 -0.1500
v 11.5000 0.1400 -0.1500
v 11.5000 0.1400 6.1500
v -0.1500 0.1400 6.1500
v 17.5000 0.0000 -0.1500
v 19.0000 0.0000 -0.1500
v 19.0000 0.1400 -0.1500
v 17.5000 0.1400 -0.1500
v 19.0000 0.0000 -0.1500
v 19.0000 0.0000 6.1500
v 19.0000 0.1400 6.1500
v 19.0000 0.1400 -0.1500
v 19.0000 0.0000 6.1500
v 17.5000 0.0000 6.1500
v 17.5000 0.1400 6.1500
v 19.0000 0.1400 6.1500
v 17.5000 0.0000 6.1500
v 17.5000 0.0000 -0.1500
v 17.5000 0.1400 -0.1500
v 17.5000 0.1400 6.1500
v 17.5000 0.1400 -0.1500
v 19.0000 0.1400 -0.1500
v 19.0000 0.1400 6.1500
v 17.5000 0.1400 6.1500
v 11.5000 0.0000 -0.1500
v 17.5000 0.0000 -0.1500
v 17.5000 0.1400 -0.1500
v 11.5000 0.1400 -0.1500
v 17.5000 0.0000 -0.1500
v 17.5000 0.0000 1.5000
v 17.5000 0.1400 1.5000
v 17.5000 0.1400 -0.1500
v 17.5000 0.0000 1.5000
v 11.5000 0.0000 1.5000
v 11.5000 0.1400 1.5000
v 17.5000 0.1400 1.5000
v 11.5000 0.0000 1.5000
v 11.5000 0.0000 -0.1500
v 11.5000 0.1400 -0.1500
v 11.5000 0.1400 1.5000
v 11.5000 0.1400 -0.1500
v 17.5000 0.1400 -0.1500
v 17.5000 0.1400 1.5000
v 11.5000 0.1400 1.5000
v 11.5000 0.0000 4.5000
v 17.5000 0.0000 4.5000
v 17.5000 0.1400 4.5000
v 11.5000 0.1400 4.5000
v 17.5000 0.0000 4.5000
v 17.5000 0.0000 6.1500
v 17.5000 0.1400 6.1500
v 17.5000 0.1400 4.5000
v 17.5000 0.0000 6.1500
v 11.5000 0.0000 6.1500
v 11.5000 0.1400 6.1500
v 17.5000 0.1400 6.1500
v 11.5000 0.0000 6.1500
v 11.5000 0.0000 4.5000
v 11.5000 0.1400 4.5000
v 11.5000 0.1400 6.1500
v 11.5000 0.1400 4.5000
v 17.5000 0.1400 4.5000
v 17.5000 0.1400 6.1500
v 11.5000 0.1400 6.1500
v 19.0000 0.0000 -0.1500
v 25.1500 0.0000 -0.1500
v 25.1500 0.1400 -0.1500
v 19.0000 0.1400 -0.1500
v 25.1500 0.0000 -0.1500
v 25.1500 0.0000 12.1500
v 25.1500 0.1400 12.1500
v 25.1500 0.1400 -0.1500
v 25.1500 0.0000 12.1500
v 19.0000 0.0000 12.1500
v 19.0000 0.1400 12.1500
v 25.1500 0.1400 12.1500
v 19.0000 0.0000 12.1500
v 19.0000 0.0000 -0.1500
v 19.0000 0.1400 -0.1500
v 19.0000 0.1400 12.1500
v 19.0000 0.1400 -0.1500
v 25.1500 0.1400 -0.1500
v 25.1500 0.1400 12.1500
v 19.0000 0.1400 12.1500
v -0.1500 0.1400 0.0000
v 0.1500 0.1400 0.0000
v 0.1500 3.3400 0.0000
v -0.1500 3.3400 0.0000
v 0.1500 0.1400 0.0000
v 0.1500 0.1400 6.0000
v 0.1500 3.3400 6.0000
v 0.1500 3.3400 0.0000
v 0.1500 0.1400 6.0000
v -0.1500 0.1400 6.0000
v -0.1500 3.3400 6.0000
v 0.1500 3.3400 6.0000
v -0.1500 0.1400 6.0000
v -0.1500 0.1400 0.0000
v -0.1500 3.3400 0.0000
v -0.1500 3.3400 6.0000
v -0.1500 3.3400 0.0000
v 0.1500 3.3400 0.0000
v 0.1500 3.3400 6.0000
v -0.1500 3.3400 6.0000
v 18.8500 0.1400 0.0000
v 19.1500 0.1400 0.0000
v 19.1500 3.3400 0.0000
v 18.8500 3.3400 0.0000
v 19.1500 0.1400 0.0000
v 19.1500 0.1400 12.0000
v 19.1500 3.3400 12.0000
v 19.1500 3.3400 0.0000
v 19.1500 0.1400 12.0000
v 18.8500 0.1400 12.0000
v 18.8500 3.3400 12.0000
v 19.1500 3.3400 12.0000
v 18.8500 0.1400 12.0000
v 18.8500 0.1400 0.0000
v 18.8500 3.3400 0.0000
v 18.8500 3.3400 12.0000
v 18.8500 3.3400 0.0000
v 19.1500 3.3400 0.0000
v 19.1500 3.3400 12.0000
v 18.8500 3.3400 12.0000
v 19.0000 0.1400 11.8500
v 25.0000 0.1400 11.8500
v 25.0000 3.3400 11.8500
v 19.0000 3.3400 11.8500
v 25.0000 0.1400 11.8500
v 25.0000 0.1400 12.1500
v 25.0000 3.3400 12.1500
v 25.0000 3.3400 11.8500
v 25.0000 0.1400 12.1500
v 19.0000 0.1400 12.1500
v 19.0000 3.3400 12.1500
v 25.0000 3.3400 12.1500
v 19.0000 0.1400 12.1500
v 19.0000 0.1400 11.8500
v 19.0000 3.3400 11.8500
v 19.0000 3.3400 12.1500
v 19.0000 3.3400 11.8500
v 25.0000 3.3400 11.8500
v 25.0000 3.3400 12.1500
v 19.0000 3.3400 12.1500
v 19.0000 0.1400 -0.1500
v 20.0000 0.1400 -0.1500
v 20.0000 3.3400 -0.1500
v 19.0000 3.3400 -0.1500
v 20.0000 0.1400 -0.1500
v 20.0000 0.1400 0.1500
v 20.0000 3.3400 0.1500
v 20.0000 3.3400 -0.1500
v 20.0000 0.1400 0.1500
v 19.0000 0.1400 0.1500
v 19.0000 3.3400 0.1500
v 20.0000 3.3400 0.1500
v 19.0000 0.1400 0.1500
v 19.0000 0.1400 -0.1500
v 19.0000 3.3400 -0.1500
v 19.0000 3.3400 0.1500
v 19.0000 3.3400 -0.1500
v 20.0000 3.3400 -0.1500
v 20.0000 3.3400 0.1500
v 19.0000 3.3400 0.1500
v 0.0000 0.1400 -0.0500
v 19.0000 0.1400 -0.0500
v 19.0000 3.3400 -0.0500
v 0.0000 3.3400 -0.0500
v 19.0000 0.1400 -0.0500
v 19.0000 0.1400 0.0500
v 19.0000 3.3400 0.0500
v 19.0000 3.3400 -0.0500
v 19.0000 0.1400 0.0500
v 0.0000 0.1400 0.0500
v 0.0000 3.3400 0.0500
v 19.0000 3.3400 0.0500
v 0.0000 0.1400 0.0500
v 0.0000 0.1400 -0.0500
v 0.0000 3.3400 -0.0500
v 0.0000 3.3400 0.0500
v 0.0000 3.3400 -0.0500
v 19.0000 3.3400 -0.0500
v 19.0000 3.3400 0.0500
v 0.0000 3.3400 0.0500
v 0.0000 0.1400 5.9500
v 19.0000 0.1400 5.9500
v 19.0000 3.3400 5.9500
v 0.0000 3.3400 5.9500
v 19.0000 0.1400 5.9500
v 19.0000 0.1400 6.0500
v 19.0000 3.3400 6.0500
v 19.0000 3.3400 5.9500
v 19.0000 0.1400 6.0500
v 0.0000 0.1400 6.0500
v 0.0000 3.3400 6.0500
v 19.0000 3.3400 6.0500
v 0.0000 0.1400 6.0500
v 0.0000 0.1400 5.9500
v 0.0000 3.3400 5.9500
v 0.0000 3.3400 6.0500
v 0.0000 3.3400 5.9500
v 19.0000 3.3400 5.9500
v 19.0000 3.3400 6.0500
v 0.0000 3.3400 6.0500
v 20.0000 0.1400 -0.0500
v 25.0000 0.1400 -0.0500
v 25.0000 3.3400 -0.0500
v 20.0000 3.3400 -0.0500
v 25.0000 0.1400 -0.0500
v 25.0000 0.1400 0.0500
v 25.0000 3.3400 0.0500
v 25.0000 3.3400 -0.0500
v 25.0000 0.1400 0.0500
v 20.0000 0.1400 0.0500
v 20.0000 3.3400 0.0500
v 25.0000 3.3400 0.0500
v 20.0000 0.1400 0.0500
v 20.0000 0.1400 -0.0500
v 20.0000 3.3400 -0.0500
v 20.0000 3.3400 0.0500
v 20.0000 3.3400 -0.0500
v 25.0000 3.3400 -0.0500
v 25.0000 3.3400 0.0500
v 20.0000 3.3400 0.0500
v 24.9500 0.1400 0.0000
v 25.0500 0.1400 0.0000
v 25.0500 3.3400 0.0000
v 24.9500 3.3400 0.0000
v 25.0500 0.1400 0.0000
v 25.0500 0.1400 12.0000
v 25.0500 3.3400 12.0000
v 25.0500 3.3400 0.0000
v 25.0500 0.1400 12.0000
v 24.9500 0.1400 12.0000
v 24.9500 3.3400 12.0000
v 25.0500 3.3400 12.0000
v 24.9500 0.1400 12.0000
v 24.9500 0.1400 0.0000
v 24.9500 3.3400 0.0000
v 24.9500 3.3400 12.0000
v 24.9500 3.3400 0.0000
v 25.0500 3.3400 0.0000
v 25.0500 3.3400 12.0000
v 24.9500 3.3400 12.0000
v 19.9400 0.1400 0.0000
v 20.0600 0.1400 0.0000
v 20.0600 2.7400 0.0000
v 19.9400 2.7400 0.0000
v 20.0600 0.1400 0.0000
v 20.0600 0.1400 12.0000
v 20.0600 2.7400 12.0000
v 20.0600 2.7400 0.0000
v 20.0600 0.1400 12.0000
v 19.9400 0.1400 12.0000
v 19.9400 2.7400 12.0000
v 20.0600 2.7400 12.0000
v 19.9400 0.1400 12.0000
v 19.9400 0.1400 0.0000
v 19.9400 2.7400 0.0000
v 19.9400 2.7400 12.0000
v 19.9400 2.7400 0.0000
v 20.0600 2.7400 0.0000
v 20.0600 2.7400 12.0000
v 19.9400 2.7400 12.0000
v 20.0000 0.1400 6.9400
v 25.0000 0.1400 6.9400
v 25.0000 2.7400 6.9400
v 20.0000 2.7400 6.9400
v 25.0000 0.1400 6.9400
v 25.0000 0.1400 7.0600
v 25.0000 2.7400 7.0600
v 25.0000 2.7400 6.9400
v 25.0000 0.1400 7.0600
v 20.0000 0.1400 7.0600
v 20.0000 2.7400 7.0600
v 25.0000 2.7400 7.0600
v 20.0000 0.1400 7.0600
v 20.0000 0.1400 6.9400
v 20.0000 2.7400 6.9400
v 20.0000 2.7400 7.0600
v 20.0000 2.7400 6.9400
v 25.0000 2.7400 6.9400
v 25.0000 2.7400 7.0600
v 20.0000 2.7400 7.0600
v 20.0000 0.1400 3.2400
v 22.0000 0.1400 3.2400
v 22.0000 2.7400 3.2400
v 20.0000 2.7400 3.2400
v 22.0000 0.1400 3.2400
v 22.0000 0.1400 3.3600
v 22.0000 2.7400 3.3600
v 22.0000 2.7400 3.2400
v 22.0000 0.1400 3.3600
v 20.0000 0.1400 3.3600
v 20.0000 2.7400 3.3600
v 22.0000 2.7400 3.3600
v 20.0000 0.1400 3.3600
v 20.0000 0.1400 3.2400
v 20.0000 2.7400 3.2400
v 20.0000 2.7400 3.3600
v 20.0000 2.7400 3.2400
v 22.0000 2.7400 3.2400
v 22.0000 2.7400 3.3600
v 20.0000 2.7400 3.3600
v 20.0000 0.1400 6.6400
v 22.0000 0.1400 6.6400
v 22.0000 2.7400 6.6400
v 20.0000 2.7400 6.6400
v 22.0000 0.1400 6.6400
v 22.0000 0.1400 6.7600
v 22.0000 2.7400 6.7600
v 22.0000 2.7400 6.6400
v 22.0000 0.1400 6.7600
v 20.0000 0.1400 6.7600
v 20.0000 2.7400 6.7600
v 22.0000 2.7400 6.7600
v 20.0000 0.1400 6.7600
v 20.0000 0.1400 6.6400
v 20.0000 2.7400 6.6400
v 20.0000 2.7400 6.7600
v 20.0000 2.7400 6.6400
v 22.0000 2.7400 6.6400
v 22.0000 2.7400 6.7600
v 20.0000 2.7400 6.7600
v 21.9400 0.1400 3.3000
v 22.0600 0.1400 3.3000
v 22.0600 2.7400 3.3000
v 21.9400 2.7400 3.3000
v 22.0600 0.1400 3.3000
v 22.0600 0.1400 6.7000
v 22.0600 2.7400 6.7000
v 22.0600 2.7400 3.3000
v 22.0600 0.1400 6.7000
v 21.9400 0.1400 6.7000
v 21.9400 2.7400 6.7000
v 22.0600 2.7400 6.7000
v 21.9400 0.1400 6.7000
v 21.9400 0.1400 3.3000
v 21.9400 2.7400 3.3000
v 21.9400 2.7400 6.7000
v 21.9400 2.7400 3.3000
v 22.0600 2.7400 3.3000
v 22.0600 2.7400 6.7000
v 21.9400 2.7400 6.7000
v 20.0000 0.1400 9.9400
v 22.5000 0.1400 9.9400
v 22.5000 2.3400 9.9400
v 20.0000 2.3400 9.9400
v 22.5000 0.1400 9.9400
v 22.5000 0.1400 10.0600
v 22.5000 2.3400 10.0600
v 22.5000 2.3400 9.9400
v 22.5000 0.1400 10.0600
v 20.0000 0.1400 10.0600
v 20.0000 2.3400 10.0600
v 22.5000 2.3400 10.0600
v 20.0000 0.1400 10.0600
v 20.0000 0.1400 9.9400
v 20.0000 2.3400 9.9400
v 20.0000 2.3400 10.0600
v 20.0000 2.3400 9.9400
v 22.5000 2.3400 9.9400
v 22.5000 2.3400 10.0600
v 20.0000 2.3400 10.0600
v 22.4400 0.1400 10.0000
v 22.5600 0.1400 10.0000
v 22.5600 2.3400 10.0000
v 22.4400 2.3400 10.0000
v 22.5600 0.1400 10.0000
v 22.5600 0.1400 12.0000
v 22.5600 2.3400 12.0000
v 22.5600 2.3400 10.0000
v 22.5600 0.1400 12.0000
v 22.4400 0.1400 12.0000
v 22.4400 2.3400 12.0000
v 22.5600 2.3400 12.0000
v 22.4400 0.1400 12.0000
v 22.4400 0.1400 10.0000
v 22.4400 2.3400 10.0000
v 22.4400 2.3400 12.0000
v 22.4400 2.3400 10.0000
v 22.5600 2.3400 10.0000
v 22.5600 2.3400 12.0000
v 22.4400 2.3400 12.0000
v -0.8500 3.3400 -0.8500
v 19.0000 3.3400 -0.8500
v 19.0000 3.6800 -0.8500
v -0.8500 3.6800 -0.8500
v 19.0000 3.3400 -0.8500
v 19.0000 3.3400 6.8500
v 19.0000 3.6800 6.8500
v 19.0000 3.6800 -0.8500
v 19.0000 3.3400 6.8500
v -0.8500 3.3400 6.8500
v -0.8500 3.6800 6.8500
v 19.0000 3.6800 6.8500
v -0.8500 3.3400 6.8500
v -0.8500 3.3400 -0.8500
v -0.8500 3.6800 -0.8500
v -0.8500 3.6800 6.8500
v -0.8500 3.6800 -0.8500
v 19.0000 3.6800 -0.8500
v 19.0000 3.6800 6.8500
v -0.8500 3.6800 6.8500
v 19.0000 3.3400 -0.8500
v 25.8500 3.3400 -0.8500
v 25.8500 3.6800 -0.8500
v 19.0000 3.6800 -0.8500
v 25.8500 3.3400 -0.8500
v 25.8500 3.3400 12.8500
v 25.8500 3.6800 12.8500
v 25.8500 3.6800 -0.8500
v 25.8500 3.3400 12.8500
v 19.0000 3.3400 12.8500
v 19.0000 3.6800 12.8500
v 25.8500 3.6800 12.8500
v 19.0000 3.3400 12.8500
v 19.0000 3.3400 -0.8500
v 19.0000 3.6800 -0.8500
v 19.0000 3.6800 12.8500
v 19.0000 3.6800 -0.8500
v 25.8500 3.6800 -0.8500
v 25.8500 3.6800 12.8500
v 19.0000 3.6800 12.8500
v 11.5000 -1.3100 1.5000
v 17.5000 -1.3100 1.5000
v 17.5000 0.1400 1.5000
v 11.5000 0.1400 1.5000
v 17.5000 -1.3100 1.5000
v 17.5000 -1.3100 4.5000
v 17.5000 0.1400 4.5000
v 17.5000 0.1400 1.5000
v 17.5000 -1.3100 4.5000
v 11.5000 -1.3100 4.5000
v 11.5000 0.1400 4.5000
v 17.5000 0.1400 4.5000
v 11.5000 -1.3100 4.5000
v 11.5000 -1.3100 1.5000
v 11.5000 0.1400 1.5000
v 11.5000 0.1400 4.5000
v 11.5000 -1.3100 1.5000
v 17.5000 -1.3100 1.5000
v 17.5000 -1.3100 4.5000
v 11.5000 -1.3100 4.5000
v 11.5000 0.0500 1.5000
v 17.5000 0.0500 1.5000
v 17.5000 0.0500 4.5000
v 11.5000 0.0500 4.5000
v 19.0000 0.0000 -5.0000
v 25.0000 0.0000 -5.0000
v 25.0000 0.1400 -5.0000
v 19.0000 0.1400 -5.0000
v 25.0000 0.0000 -5.0000
v 25.0000 0.0000 0.0000
v 25.0000 0.1400 0.0000
v 25.0000 0.1400 -5.0000
v 25.0000 0.0000 0.0000
v 19.0000 0.0000 0.0000
v 19.0000 0.1400 0.0000
v 25.0000 0.1400 0.0000
v 19.0000 0.0000 0.0000
v 19.0000 0.0000 -5.0000
v 19.0000 0.1400 -5.0000
v 19.0000 0.1400 0.0000
v 19.0000 0.1400 -5.0000
v 25.0000 0.1400 -5.0000
v 25.0000 0.1400 0.0000
v 19.0000 0.1400 0.0000
v 24.2500 0.1400 -2.5000
v 24.1936 0.1400 -1.9993
v 24.0272 0.1400 -1.5238
v 23.7591 0.1400 -1.0971
v 23.4029 0.1400 -0.7409
v 22.9762 0.1400 -0.4728
v 22.5007 0.1400 -0.3064
v 22.0000 0.1400 -0.2500
v 21.4993 0.1400 -0.3064
v 21.0238 0.1400 -0.4728
v 20.5971 0.1400 -0.7409
v 20.2409 0.1400 -1.0971
v 19.9728 0.1400 -1.5238
v 19.8064 0.1400 -1.9993
v 19.7500 0.1400 -2.5000
v 19.8064 0.1400 -3.0007
v 19.9728 0.1400 -3.4762
v 20.2409 0.1400 -3.9029
v 20.5971 0.1400 -4.2591
v 21.0238 0.1400 -4.5272
v 21.4993 0.1400 -4.6936
v 22.0000 0.1400 -4.7500
v 22.5007 0.1400 -4.6936
v 22.9762 0.1400 -4.5272
v 23.4029 0.1400 -4.2591
v 23.7591 0.1400 -3.9029
v 24.0272 0.1400 -3.4762
v 24.1936 0.1400 -3.0007
v 24.2500 0.9900 -2.5000
v 24.1936 0.9900 -1.9993
v 24.0272 0.9900 -1.5238
v 23.7591 0.9900 -1.0971
v 23.4029 0.9900 -0.7409
v 22.9762 0.9900 -0.4728
v 22.5007 0.9900 -0.3064
v 22.0000 0.9900 -0.2500
v 21.4993 0.9900 -0.3064
v 21.0238 0.9900 -0.4728
v 20.5971 0.9900 -0.7409
v 20.2409 0.9900 -1.0971
v 19.9728 0.9900 -1.5238
v 19.8064 0.9900 -1.9993
v 19.7500 0.9900 -2.5000
v 19.8064 0.9900 -3.0007
v 19.9728 0.9900 -3.4762
v 20.2409 0.9900 -3.9029
v 20.5971 0.9900 -4.2591
v 21.0238 0.9900 -4.5272
v 21.4993 0.9900 -4.6936
v 22.0000 0.9900 -4.7500
v 22.5007 0.9900 -4.6936
v 22.9762 0.9900 -4.5272
v 23.4029 0.9900 -4.2591
v 23.7591 0.9900 -3.9029
v 24.0272 0.9900 -3.4762
v 24.1936 0.9900 -3.0007
v 23.9500 0.9900 -2.5000
v 24.2500 0.9900 -2.5000
v 24.1936 0.9900 -1.9993
v 23.9011 0.9900 -2.0661
v 23.9011 0.9900 -2.0661
v 24.1936 0.9900 -1.9993
v 24.0272 0.9900 -1.5238
v 23.7569 0.9900 -1.6539
v 23.7569 0.9900 -1.6539
v 24.0272 0.9900 -1.5238
v 23.7591 0.9900 -1.0971
v 23.5246 0.9900 -1.2842
v 23.5246 0.9900 -1.2842
v 23.7591 0.9900 -1.0971
v 23.4029 0.9900 -0.7409
v 23.2158 0.9900 -0.9754
v 23.2158 0.9900 -0.9754
v 23.4029 0.9900 -0.7409
v 22.9762 0.9900 -0.4728
v 22.8461 0.9900 -0.7431
v 22.8461 0.9900 -0.7431
v 22.9762 0.9900 -0.4728
v 22.5007 0.9900 -0.3064
v 22.4339 0.9900 -0.5989
v 22.4339 0.9900 -0.5989
v 22.5007 0.9900 -0.3064
v 22.0000 0.9900 -0.2500
v 22.0000 0.9900 -0.5500
v 22.0000 0.9900 -0.5500
v 22.0000 0.9900 -0.2500
v 21.4993 0.9900 -0.3064
v 21.5661 0.9900 -0.5989
v 21.5661 0.9900 -0.5989
v 21.4993 0.9900 -0.3064
v 21.0238 0.9900 -0.4728
v 21.1539 0.9900 -0.7431
v 21.1539 0.9900 -0.7431
v 21.0238 0.9900 -0.4728
v 20.5971 0.9900 -0.7409
v 20.7842 0.9900 -0.9754
v 20.7842 0.9900 -0.9754
v 20.5971 0.9900 -0.7409
v 20.2409 0.9900 -1.0971
v 20.4754 0.9900 -1.2842
v 20.4754 0.9900 -1.2842
v 20.2409 0.9900 -1.0971
v 19.9728 0.9900 -1.5238
v 20.2431 0.9900 -1.6539
v 20.2431 0.9900 -1.6539
v 19.9728 0.9900 -1.5238
v 19.8064 0.9900 -1.9993
v 20.0989 0.9900 -2.0661
v 20.0989 0.9900 -2.0661
v 19.8064 0.9900 -1.9993
v 19.7500 0.9900 -2.5000
v 20.0500 0.9900 -2.5000
v 20.0500 0.9900 -2.5000
v 19.7500 0.9900 -2.5000
v 19.8064 0.9900 -3.0007
v 20.0989 0.9900 -2.9339
v 20.0989 0.9900 -2.9339
v 19.8064 0.9900 -3.0007
v 19.9728 0.9900 -3.4762
v 20.2431 0.9900 -3.3461
v 20.2431 0.9900 -3.3461
v 19.9728 0.9900 -3.4762
v 20.2409 0.9900 -3.9029
v 20.4754 0.9900 -3.7158
v 20.4754 0.9900 -3.7158
v 20.2409 0.9900 -3.9029
v 20.5971 0.9900 -4.2591
v 20.7842 0.9900 -4.0246
v 20.7842 0.9900 -4.0246
v 20.5971 0.9900 -4.2591
v 21.0238 0.9900 -4.5272
v 21.1539 0.9900 -4.2569
v 21.1539 0.9900 -4.2569
v 21.0238 0.9900 -4.5272
v 21.4993 0.9900 -4.6936
v 21.5661 0.9900 -4.4011
v 21.5661 0.9900 -4.4011
v 21.4993 0.9900 -4.6936
v 22.0000 0.9900 -4.7500
v 22.0000 0.9900 -4.4500
v 22.0000 0.9900 -4.4500
v 22.0000 0.9900 -4.7500
v 22.5007 0.9900 -4.6936
v 22.4339 0.9900 -4.4011
v 22.4339 0.9900 -4.4011
v 22.5007 0.9900 -4.6936
v 22.9762 0.9900 -4.5272
v 22.8461 0.9900 -4.2569
v 22.8461 0.9900 -4.2569
v 22.9762 0.9900 -4.5272
v 23.4029 0.9900 -4.2591
v 23.2158 0.9900 -4.0246
v 23.2158 0.9900 -4.0246
v 23.4029 0.9900 -4.2591
v 23.7591 0.9900 -3.9029
v 23.5246 0.9900 -3.7158
v 23.5246 0.9900 -3.7158
v 23.7591 0.9900 -3.9029
v 24.0272 0.9900 -3.4762
v 23.7569 0.9900 -3.3461
v 23.7569 0.9900 -3.3461
v 24.0272 0.9900 -3.4762
v 24.1936 0.9900 -3.0007
v 23.9011 0.9900 -2.9339
v 23.9011 0.9900 -2.9339
v 24.1936 0.9900 -3.0007
v 24.2500 0.9900 -2.5000
v 23.9500 0.9900 -2.5000
v 23.9500 0.3400 -2.5000
v 23.9011 0.3400 -2.0661
v 23.7569 0.3400 -1.6539
v 23.5246 0.3400 -1.2842
v 23.2158 0.3400 -0.9754
v 22.8461 0.3400 -0.7431
v 22.4339 0.3400 -0.5989
v 22.0000 0.3400 -0.5500
v 21.5661 0.3400 -0.5989
v 21.1539 0.3400 -0.7431
v 20.7842 0.3400 -0.9754
v 20.4754 0.3400 -1.2842
v 20.2431 0.3400 -1.6539
v 20.0989 0.3400 -2.0661
v 20.0500 0.3400 -2.5000
v 20.0989 0.3400 -2.9339
v 20.2431 0.3400 -3.3461
v 20.4754 0.3400 -3.7158
v 20.7842 0.3400 -4.0246
v 21.1539 0.3400 -4.2569
v 21.5661 0.3400 -4.4011
v 22.0000 0.3400 -4.4500
v 22.4339 0.3400 -4.4011
v 22.8461 0.3400 -4.2569
v 23.2158 0.3400 -4.0246
v 23.5246 0.3400 -3.7158
v 23.7569 0.3400 -3.3461
v 23.9011 0.3400 -2.9339
v 23.9500 0.9900 -2.5000
v 23.9011 0.9900 -2.0661
v 23.7569 0.9900 -1.6539
v 23.5246 0.9900 -1.2842
v 23.2158 0.9900 -0.9754
v 22.8461 0.9900 -0.7431
v 22.4339 0.9900 -0.5989
v 22.0000 0.9900 -0.5500
v 21.5661 0.9900 -0.5989
v 21.1539 0.9900 -0.7431
v 20.7842 0.9900 -0.9754
v 20.4754 0.9900 -1.2842
v 20.2431 0.9900 -1.6539
v 20.0989 0.9900 -2.0661
v 20.0500 0.9900 -2.5000
v 20.0989 0.9900 -2.9339
v 20.2431 0.9900 -3.3461
v 20.4754 0.9900 -3.7158
v 20.7842 0.9900 -4.0246
v 21.1539 0.9900 -4.2569
v 21.5661 0.9900 -4.4011
v 22.0000 0.9900 -4.4500
v 22.4339 0.9900 -4.4011
v 22.8461 0.9900 -4.2569
v 23.2158 0.9900 -4.0246
v 23.5246 0.9900 -3.7158
v 23.7569 0.9900 -3.3461
v 23.9011 0.9900 -2.9339
v 23.9500 0.8300 -2.5000
v 23.9011 0.8300 -2.0661
v 23.7569 0.8300 -1.6539
v 23.5246 0.8300 -1.2842
v 23.2158 0.8300 -0.9754
v 22.8461 0.8300 -0.7431
v 22.4339 0.8300 -0.5989
v 22.0000 0.8300 -0.5500
v 21.5661 0.8300 -0.5989
v 21.1539 0.8300 -0.7431
v 20.7842 0.8300 -0.9754
v 20.4754 0.8300 -1.2842
v 20.2431 0.8300 -1.6539
v 20.0989 0.8300 -2.0661
v 20.0500 0.8300 -2.5000
v 20.0989 0.8300 -2.9339
v 20.2431 0.8300 -3.3461
v 20.4754 0.8300 -3.7158
v 20.7842 0.8300 -4.0246
v 21.1539 0.8300 -4.2569
v 21.5661 0.8300 -4.4011
v 22.0000 0.8300 -4.4500
v 22.4339 0.8300 -4.4011
v 22.8461 0.8300 -4.2569
v 23.2158 0.8300 -4.0246
v 23.5246 0.8300 -3.7158
v 23.7569 0.8300 -3.3461
v 23.9011 0.8300 -2.9339
v 0.1500 0.1400 0.5000
v 0.8500 0.1400 0.5000
v 0.8500 1.0600 0.5000
v 0.1500 1.0600 0.5000
v 0.8500 0.1400 0.5000
v 0.8500 0.1400 5.5000
v 0.8500 1.0600 5.5000
v 0.8500 1.0600 0.5000
v 0.8500 0.1400 5.5000
v 0.1500 0.1400 5.5000
v 0.1500 1.0600 5.5000
v 0.8500 1.0600 5.5000
v 0.1500 0.1400 5.5000
v 0.1500 0.1400 0.5000
v 0.1500 1.0600 0.5000
v 0.1500 1.0600 5.5000
v 0.1500 1.0600 0.5000
v 0.8500 1.0600 0.5000
v 0.8500 1.0600 5.5000
v 0.1500 1.0600 5.5000
v 0.1500 1.0600 2.4000
v 0.8500 1.0600 2.4000
v 0.8500 1.2400 2.4000
v 0.1500 1.2400 2.4000
v 0.8500 1.0600 2.4000
v 0.8500 1.0600 3.6000
v 0.8500 1.2400 3.6000
v 0.8500 1.2400 2.4000
v 0.8500 1.0600 3.6000
v 0.1500 1.0600 3.6000
v 0.1500 1.2400 3.6000
v 0.8500 1.2400 3.6000
v 0.1500 1.0600 3.6000
v 0.1500 1.0600 2.4000
v 0.1500 1.2400 2.4000
v 0.1500 1.2400 3.6000
v 0.1500 1.2400 2.4000
v 0.8500 1.2400 2.4000
v 0.8500 1.2400 3.6000
v 0.1500 1.2400 3.6000
v 0.1500 2.0900 2.3000
v 1.0500 2.0900 2.3000
v 1.0500 2.4900 2.3000
v 0.1500 2.4900 2.3000
v 1.0500 2.0900 2.3000
v 1.0500 2.0900 3.7000
v 1.0500 2.4900 3.7000
v 1.0500 2.4900 2.3000
v 1.0500 2.0900 3.7000
v 0.1500 2.0900 3.7000
v 0.1500 2.4900 3.7000
v 1.0500 2.4900 3.7000
v 0.1500 2.0900 3.7000
v 0.1500 2.0900 2.3000
v 0.1500 2.4900 2.3000
v 0.1500 2.4900 3.7000
v 0.1500 2.4900 2.3000
v 1.0500 2.4900 2.3000
v 1.0500 2.4900 3.7000
v 0.1500 2.4900 3.7000
v 4.3000 0.7600 2.1000
v 7.3000 0.7600 2.1000
v 7.3000 0.9000 2.1000
v 4.3000 0.9000 2.1000
v 7.3000 0.7600 2.1000
v 7.3000 0.7600 3.9000
v 7.3000 0.9000 3.9000
v 7.3000 0.9000 2.1000
v 7.3000 0.7600 3.9000
v 4.3000 0.7600 3.9000
v 4.3000 0.9000 3.9000
v 7.3000 0.9000 3.9000
v 4.3000 0.7600 3.9000
v 4.3000 0.7600 2.1000
v 4.3000 0.9000 2.1000
v 4.3000 0.9000 3.9000
v 4.3000 0.9000 2.1000
v 7.3000 0.9000 2.1000
v 7.3000 0.9000 3.9000
v 4.3000 0.9000 3.9000
v 3.8500 0.1400 2.2500
v 4.2500 0.1400 2.2500
v 4.2500 0.6000 2.2500
v 3.8500 0.6000 2.2500
v 4.2500 0.1400 2.2500
v 4.2500 0.1400 2.5500
v 4.2500 0.6000 2.5500
v 4.2500 0.6000 2.2500
v 4.2500 0.1400 2.5500
v 3.8500 0.1400 2.5500
v 3.8500 0.6000 2.5500
v 4.2500 0.6000 2.5500
v 3.8500 0.1400 2.5500
v 3.8500 0.1400 2.2500
v 3.8500 0.6000 2.2500
v 3.8500 0.6000 2.5500
v 3.8500 0.6000 2.2500
v 4.2500 0.6000 2.2500
v 4.2500 0.6000 2.5500
v 3.8500 0.6000 2.5500
v 7.3500 0.1400 2.2500
v 7.7500 0.1400 2.2500
v 7.7500 0.6000 2.2500
v 7.3500 0.6000 2.2500
v 7.7500 0.1400 2.2500
v 7.7500 0.1400 2.5500
v 7.7500 0.6000 2.5500
v 7.7500 0.6000 2.2500
v 7.7500 0.1400 2.5500
v 7.3500 0.1400 2.5500
v 7.3500 0.6000 2.5500
v 7.7500 0.6000 2.5500
v 7.3500 0.1400 2.5500
v 7.3500 0.1400 2.2500
v 7.3500 0.6000 2.2500
v 7.3500 0.6000 2.5500
v 7.3500 0.6000 2.2500
v 7.7500 0.6000 2.2500
v 7.7500 0.6000 2.5500
v 7.3500 0.6000 2.5500
v 3.8500 0.1400 2.6100
v 4.2500 0.1400 2.6100
v 4.2500 0.6000 2.6100
v 3.8500 0.6000 2.6100
v 4.2500 0.1400 2.6100
v 4.2500 0.1400 2.9100
v 4.2500 0.6000 2.9100
v 4.2500 0.6000 2.6100
v 4.2500 0.1400 2.9100
v 3.8500 0.1400 2.9100
v 3.8500 0.6000 2.9100
v 4.2500 0.6000 2.9100
v 3.8500 0.1400 2.9100
v 3.8500 0.1400 2.6100
v 3.8500 0.6000 2.6100
v 3.8500 0.6000 2.9100
v 3.8500 0.6000 2.6100
v 4.2500 0.6000 2.6100
v 4.2500 0.6000 2.9100
v 3.8500 0.6000 2.9100
v 7.3500 0.1400 2.6100
v 7.7500 0.1400 2.6100
v 7.7500 0.6000 2.6100
v 7.3500 0.6000 2.6100
v 7.7500 0.1400 2.6100
v 7.7500 0.1400 2.9100
v 7.7500 0.6000 2.9100
v 7.7500 0.6000 2.6100
v 7.7500 0.1400 2.9100
v 7.3500 0.1400 2.9100
v 7.3500 0.6000 2.9100
v 7.7500 0.6000 2.9100
v 7.3500 0.1400 2.9100
v 7.3500 0.1400 2.6100
v 7.3500 0.6000 2.6100
v 7.3500 0.6000 2.9100
v 7.3500 0.6000 2.6100
v 7.7500 0.6000 2.6100
v 7.7500 0.6000 2.9100
v 7.3500 0.6000 2.9100
v 3.8500 0.1400 2.9700
v 4.2500 0.1400 2.9700
v 4.2500 0.6000 2.9700
v 3.8500 0.6000 2.9700
v 4.2500 0.1400 2.9700
v 4.2500 0.1400 3.2700
v 4.2500 0.6000 3.2700
v 4.2500 0.6000 2.9700
v 4.2500 0.1400 3.2700
v 3.8500 0.1400 3.2700
v 3.8500 0.6000 3.2700
v 4.2500 0.6000 3.2700
v 3.8500 0.1400 3.2700
v 3.8500 0.1400 2.9700
v 3.8500 0.6000 2.9700
v 3.8500 0.6000 3.2700
v 3.8500 0.6000 2.9700
v 4.2500 0.6000 2.9700
v 4.2500 0.6000 3.2700
v 3.8500 0.6000 3.2700
v 7.3500 0.1400 2.9700
v 7.7500 0.1400 2.9700
v 7.7500 0.6000 2.9700
v 7.3500 0.6000 2.9700
v 7.7500 0.1400 2.9700
v 7.7500 0.1400 3.2700
v 7.7500 0.6000 3.2700
v 7.7500 0.6000 2.9700
v 7.7500 0.1400 3.2700
v 7.3500 0.1400 3.2700
v 7.3500 0.6000 3.2700
v 7.7500 0.6000 3.2700
v 7.3500 0.1400 3.2700
v 7.3500 0.1400 2.9700
v 7.3500 0.6000 2.9700
v 7.3500 0.6000 3.2700
v 7.3500 0.6000 2.9700
v 7.7500 0.6000 2.9700
v 7.7500 0.6000 3.2700
v 7.3500 0.6000 3.2700
v 3.8500 0.1400 3.3300
v 4.2500 0.1400 3.3300
v 4.2500 0.6000 3.3300
v 3.8500 0.6000 3.3300
v 4.2500 0.1400 3.3300
v 4.2500 0.1400 3.6300
v 4.2500 0.6000 3.6300
v 4.2500 0.6000 3.3300
v 4.2500 0.1400 3.6300
v 3.8500 0.1400 3.6300
v 3.8500 0.6000 3.6300
v 4.2500 0.6000 3.6300
v 3.8500 0.1400 3.6300
v 3.8500 0.1400 3.3300
v 3.8500 0.6000 3.3300
v 3.8500 0.6000 3.6300
v 3.8500 0.6000 3.3300
v 4.2500 0.6000 3.3300
v 4.2500 0.6000 3.6300
v 3.8500 0.6000 3.6300
v 7.3500 0.1400 3.3300
v 7.7500 0.1400 3.3300
v 7.7500 0.6000 3.3300
v 7.3500 0.6000 3.3300
v 7.7500 0.1400 3.3300
v 7.7500 0.1400 3.6300
v 7.7500 0.6000 3.6300
v 7.7500 0.6000 3.3300
v 7.7500 0.1400 3.6300
v 7.3500 0.1400 3.6300
v 7.3500 0.6000 3.6300
v 7.7500 0.6000 3.6300
v 7.3500 0.1400 3.6300
v 7.3500 0.1400 3.3300
v 7.3500 0.6000 3.3300
v 7.3500 0.6000 3.6300
v 7.3500 0.6000 3.3300
v 7.7500 0.6000 3.3300
v 7.7500 0.6000 3.6300
v 7.3500 0.6000 3.6300
v 3.8500 0.1400 3.6900
v 4.2500 0.1400 3.6900
v 4.2500 0.6000 3.6900
v 3.8500 0.6000 3.6900
v 4.2500 0.1400 3.6900
v 4.2500 0.1400 3.9900
v 4.2500 0.6000 3.9900
v 4.2500 0.6000 3.6900
v 4.2500 0.1400 3.9900
v 3.8500 0.1400 3.9900
v 3.8500 0.6000 3.9900
v 4.2500 0.6000 3.9900
v 3.8500 0.1400 3.9900
v 3.8500 0.1400 3.6900
v 3.8500 0.6000 3.6900
v 3.8500 0.6000 3.9900
v 3.8500 0.6000 3.6900
v 4.2500 0.6000 3.6900
v 4.2500 0.6000 3.9900
v 3.8500 0.6000 3.9900
v 7.3500 0.1400 3.6900
v 7.7500 0.1400 3.6900
v 7.7500 0.6000 3.6900
v 7.3500 0.6000 3.6900
v 7.7500 0.1400 3.6900
v 7.7500 0.1400 3.9900
v 7.7500 0.6000 3.9900
v 7.7500 0.6000 3.6900
v 7.7500 0.1400 3.9900
v 7.3500 0.1400 3.9900
v 7.3500 0.6000 3.9900
v 7.7500 0.6000 3.9900
v 7.3500 0.1400 3.9900
v 7.3500 0.1400 3.6900
v 7.3500 0.6000 3.6900
v 7.3500 0.6000 3.9900
v 7.3500 0.6000 3.6900
v 7.7500 0.6000 3.6900
v 7.7500 0.6000 3.9900
v 7.3500 0.6000 3.9900
v 20.4000 0.1400 0.3500
v 21.7000 0.1400 0.3500
v 21.7000 0.5600 0.3500
v 20.4000 0.5600 0.3500
v 21.7000 0.1400 0.3500
v 21.7000 0.1400 2.1500
v 21.7000 0.5600 2.1500
v 21.7000 0.5600 0.3500
v 21.7000 0.1400 2.1500
v 20.4000 0.1400 2.1500
v 20.4000 0.5600 2.1500
v 21.7000 0.5600 2.1500
v 20.4000 0.1400 2.1500
v 20.4000 0.1400 0.3500
v 20.4000 0.5600 0.3500
v 20.4000 0.5600 2.1500
v 20.4000 0.5600 0.3500
v 21.7000 0.5600 0.3500
v 21.7000 0.5600 2.1500
v 20.4000 0.5600 2.1500
v 22.6000 0.1400 2.7000
v 24.7000 0.1400 2.7000
v 24.7000 0.5600 2.7000
v 22.6000 0.5600 2.7000
v 24.7000 0.1400 2.7000
v 24.7000 0.1400 4.0000
v 24.7000 0.5600 4.0000
v 24.7000 0.5600 2.7000
v 24.7000 0.1400 4.0000
v 22.6000 0.1400 4.0000
v 22.6000 0.5600 4.0000
v 24.7000 0.5600 4.0000
v 22.6000 0.1400 4.0000
v 22.6000 0.1400 2.7000
v 22.6000 0.5600 2.7000
v 22.6000 0.5600 4.0000
v 22.6000 0.5600 2.7000
v 24.7000 0.5600 2.7000
v 24.7000 0.5600 4.0000
v 22.6000 0.5600 4.0000
v 22.7000 0.1400 0.3500
v 24.0000 0.1400 0.3500
v 24.0000 0.5600 0.3500
v 22.7000 0.5600 0.3500
v 24.0000 0.1400 0.3500
v 24.0000 0.1400 2.1500
v 24.0000 0.5600 2.1500
v 24.0000 0.5600 0.3500
v 24.0000 0.1400 2.1500
v 22.7000 0.1400 2.1500
v 22.7000 0.5600 2.1500
v 24.0000 0.5600 2.1500
v 22.7000 0.1400 2.1500
v 22.7000 0.1400 0.3500
v 22.7000 0.5600 0.3500
v 22.7000 0.5600 2.1500
v 22.7000 0.5600 0.3500
v 24.0000 0.5600 0.3500
v 24.0000 0.5600 2.1500
v 22.7000 0.5600 2.1500
v 22.6000 0.1400 4.7000
v 24.7000 0.1400 4.7000
v 24.7000 0.5600 4.7000
v 22.6000 0.5600 4.7000
v 24.7000 0.1400 4.7000
v 24.7000 0.1400 6.0000
v 24.7000 0.5600 6.0000
v 24.7000 0.5600 4.7000
v 24.7000 0.1400 6.0000
v 22.6000 0.1400 6.0000
v 22.6000 0.5600 6.0000
v 24.7000 0.5600 6.0000
v 22.6000 0.1400 6.0000
v 22.6000 0.1400 4.7000
v 22.6000 0.5600 4.7000
v 22.6000 0.5600 6.0000
v 22.6000 0.5600 4.7000
v 24.7000 0.5600 4.7000
v 24.7000 0.5600 6.0000
v 22.6000 0.5600 6.0000
v 21.0000 0.1400 3.3000
v 22.0000 0.1400 3.3000
v 22.0000 2.1900 3.3000
v 21.0000 2.1900 3.3000
v 22.0000 0.1400 3.3000
v 22.0000 0.1400 4.2000
v 22.0000 2.1900 4.2000
v 22.0000 2.1900 3.3000
v 22.0000 0.1400 4.2000
v 21.0000 0.1400 4.2000
v 21.0000 2.1900 4.2000
v 22.0000 2.1900 4.2000
v 21.0000 0.1400 4.2000
v 21.0000 0.1400 3.3000
v 21.0000 2.1900 3.3000
v 21.0000 2.1900 4.2000
v 21.0000 2.1900 3.3000
v 22.0000 2.1900 3.3000
v 22.0000 2.1900 4.2000
v 21.0000 2.1900 4.2000
v 21.0000 0.1400 4.2000
v 22.0000 0.1400 4.2000
v 22.0000 2.1900 4.2000
v 21.0000 2.1900 4.2000
v 22.0000 0.1400 4.2000
v 22.0000 0.1400 5.0000
v 22.0000 2.1900 5.0000
v 22.0000 2.1900 4.2000
v 22.0000 0.1400 5.0000
v 21.0000 0.1400 5.0000
v 21.0000 2.1900 5.0000
v 22.0000 2.1900 5.0000
v 21.0000 0.1400 5.0000
v 21.0000 0.1400 4.2000
v 21.0000 2.1900 4.2000
v 21.0000 2.1900 5.0000
v 21.0000 2.1900 4.2000
v 22.0000 2.1900 4.2000
v 22.0000 2.1900 5.0000
v 21.0000 2.1900 5.0000
v 21.0000 0.1400 5.0000
v 22.0000 0.1400 5.0000
v 22.0000 2.1900 5.0000
v 21.0000 2.1900 5.0000
v 22.0000 0.1400 5.0000
v 22.0000 0.1400 5.8000
v 22.0000 2.1900 5.8000
v 22.0000 2.1900 5.0000
v 22.0000 0.1400 5.8000
v 21.0000 0.1400 5.8000
v 21.0000 2.1900 5.8000
v 22.0000 2.1900 5.8000
v 21.0000 0.1400 5.8000
v 21.0000 0.1400 5.0000
v 21.0000 2.1900 5.0000
v 21.0000 2.1900 5.8000
v 21.0000 2.1900 5.0000
v 22.0000 2.1900 5.0000
v 22.0000 2.1900 5.8000
v 21.0000 2.1900 5.8000
v 21.0000 0.1400 5.8000
v 22.0000 0.1400 5.8000
v 22.0000 2.1900 5.8000
v 21.0000 2.1900 5.8000
v 22.0000 0.1400 5.8000
v 22.0000 0.1400 6.7000
v 22.0000 2.1900 6.7000
v 22.0000 2.1900 5.8000
v 22.0000 0.1400 6.7000
v 21.0000 0.1400 6.7000
v 21.0000 2.1900 6.7000
v 22.0000 2.1900 6.7000
v 21.0000 0.1400 6.7000
v 21.0000 0.1400 5.8000
v 21.0000 2.1900 5.8000
v 21.0000 2.1900 6.7000
v 21.0000 2.1900 5.8000
v 22.0000 2.1900 5.8000
v 22.0000 2.1900 6.7000
v 21.0000 2.1900 6.7000
v 20.0400 0.7400 3.6000
v 20.4500 0.7400 3.6000
v 20.4500 1.0000 3.6000
v 20.0400 1.0000 3.6000
v 20.4500 0.7400 3.6000
v 20.4500 0.7400 4.2000
v 20.4500 1.0000 4.2000
v 20.4500 1.0000 3.6000
v 20.4500 0.7400 4.2000
v 20.0400 0.7400 4.2000
v 20.0400 1.0000 4.2000
v 20.4500 1.0000 4.2000
v 20.0400 0.7400 4.2000
v 20.0400 0.7400 3.6000
v 20.0400 1.0000 3.6000
v 20.0400 1.0000 4.2000
v 20.0400 1.0000 3.6000
v 20.4500 1.0000 3.6000
v 20.4500 1.0000 4.2000
v 20.0400 1.0000 4.2000
v 20.0400 0.7400 5.8000
v 20.4500 0.7400 5.8000
v 20.4500 1.0000 5.8000
v 20.0400 1.0000 5.8000
v 20.4500 0.7400 5.8000
v 20.4500 0.7400 6.4000
v 20.4500 1.0000 6.4000
v 20.4500 1.0000 5.8000
v 20.4500 0.7400 6.4000
v 20.0400 0.7400 6.4000
v 20.0400 1.0000 6.4000
v 20.4500 1.0000 6.4000
v 20.0400 0.7400 6.4000
v 20.0400 0.7400 5.8000
v 20.0400 1.0000 5.8000
v 20.0400 1.0000 6.4000
v 20.0400 1.0000 5.8000
v 20.4500 1.0000 5.8000
v 20.4500 1.0000 6.4000
v 20.0400 1.0000 6.4000
v 20.2500 0.5600 10.2500
v 22.2500 0.5600 10.2500
v 22.2500 0.6600 10.2500
v 20.2500 0.6600 10.2500
v 22.2500 0.5600 10.2500
v 22.2500 0.5600 10.8000
v 22.2500 0.6600 10.8000
v 22.2500 0.6600 10.2500
v 22.2500 0.5600 10.8000
v 20.2500 0.5600 10.8000
v 20.2500 0.6600 10.8000
v 22.2500 0.6600 10.8000
v 20.2500 0.5600 10.8000
v 20.2500 0.5600 10.2500
v 20.2500 0.6600 10.2500
v 20.2500 0.6600 10.8000
v 20.2500 0.6600 10.2500
v 22.2500 0.6600 10.2500
v 22.2500 0.6600 10.8000
v 20.2500 0.6600 10.8000
v 21.6500 0.9400 10.8000
v 22.2500 0.9400 10.8000
v 22.2500 1.0400 10.8000
v 21.6500 1.0400 10.8000
v 22.2500 0.9400 10.8000
v 22.2500 0.9400 11.7000
v 22.2500 1.0400 11.7000
v 22.2500 1.0400 10.8000
v 22.2500 0.9400 11.7000
v 21.6500 0.9400 11.7000
v 21.6500 1.0400 11.7000
v 22.2500 1.0400 11.7000
v 21.6500 0.9400 11.7000
v 21.6500 0.9400 10.8000
v 21.6500 1.0400 10.8000
v 21.6500 1.0400 11.7000
v 21.6500 1.0400 10.8000
v 22.2500 1.0400 10.8000
v 22.2500 1.0400 11.7000
v 21.6500 1.0400 11.7000
v 20.3000 0.1400 7.3000
v 21.2000 0.1400 7.3000
v 21.2000 1.4400 7.3000
v 20.3000 1.4400 7.3000
v 21.2000 0.1400 7.3000
v 21.2000 0.1400 9.4000
v 21.2000 1.4400 9.4000
v 21.2000 1.4400 7.3000
v 21.2000 0.1400 9.4000
v 20.3000 0.1400 9.4000
v 20.3000 1.4400 9.4000
v 21.2000 1.4400 9.4000
v 20.3000 0.1400 9.4000
v 20.3000 0.1400 7.3000
v 20.3000 1.4400 7.3000
v 20.3000 1.4400 9.4000
v 20.3000 1.4400 7.3000
v 21.2000 1.4400 7.3000
v 21.2000 1.4400 9.4000
v 20.3000 1.4400 9.4000
v 21.7000 0.1400 7.3000
v 24.7000 0.1400 7.3000
v 24.7000 2.0400 7.3000
v 21.7000 2.0400 7.3000
v 24.7000 0.1400 7.3000
v 24.7000 0.1400 7.9000
v 24.7000 2.0400 7.9000
v 24.7000 2.0400 7.3000
v 24.7000 0.1400 7.9000
v 21.7000 0.1400 7.9000
v 21.7000 2.0400 7.9000
v 24.7000 2.0400 7.9000
v 21.7000 0.1400 7.9000
v 21.7000 0.1400 7.3000
v 21.7000 2.0400 7.3000
v 21.7000 2.0400 7.9000
v 21.7000 2.0400 7.3000
v 24.7000 2.0400 7.3000
v 24.7000 2.0400 7.9000
v 21.7000 2.0400 7.9000
v 23.0000 0.1400 8.5000
v 24.5000 0.1400 8.5000
v 24.5000 0.6200 8.5000
v 23.0000 0.6200 8.5000
v 24.5000 0.1400 8.5000
v 24.5000 0.1400 9.1000
v 24.5000 0.6200 9.1000
v 24.5000 0.6200 8.5000
v 24.5000 0.1400 9.1000
v 23.0000 0.1400 9.1000
v 23.0000 0.6200 9.1000
v 24.5000 0.6200 9.1000
v 23.0000 0.1400 9.1000
v 23.0000 0.1400 8.5000
v 23.0000 0.6200 8.5000
v 23.0000 0.6200 9.1000
v 23.0000 0.6200 8.5000
v 24.5000 0.6200 8.5000
v 24.5000 0.6200 9.1000
v 23.0000 0.6200 9.1000
v 22.9000 0.1400 9.9000
v 24.7000 0.1400 9.9000
v 24.7000 1.6900 9.9000
v 22.9000 1.6900 9.9000
v 24.7000 0.1400 9.9000
v 24.7000 0.1400 10.9000
v 24.7000 1.6900 10.9000
v 24.7000 1.6900 9.9000
v 24.7000 0.1400 10.9000
v 22.9000 0.1400 10.9000
v 22.9000 1.6900 10.9000
v 24.7000 1.6900 10.9000
v 22.9000 0.1400 10.9000
v 22.9000 0.1400 9.9000
v 22.9000 1.6900 9.9000
v 22.9000 1.6900 10.9000
v 22.9000 1.6900 9.9000
v 24.7000 1.6900 9.9000
v 24.7000 1.6900 10.9000
v 22.9000 1.6900 10.9000
v 22.9000 0.1400 11.0000
v 24.7000 0.1400 11.0000
v 24.7000 1.3400 11.0000
v 22.9000 1.3400 11.0000
v 24.7000 0.1400 11.0000
v 24.7000 0.1400 11.8000
v 24.7000 1.3400 11.8000
v 24.7000 1.3400 11.0000
v 24.7000 0.1400 11.8000
v 22.9000 0.1400 11.8000
v 22.9000 1.3400 11.8000
v 24.7000 1.3400 11.8000
v 22.9000 0.1400 11.8000
v 22.9000 0.1400 11.0000
v 22.9000 1.3400 11.0000
v 22.9000 1.3400 11.8000
v 22.9000 1.3400 11.0000
v 24.7000 1.3400 11.0000
v 24.7000 1.3400 11.8000
v 22.9000 1.3400 11.8000

o Pardoseala_bara
usemtl mat_pardoseala
f 1 2 3 4
f 5 6 7 8
f 9 10 11 12
f 13 14 15 16
f 17 18 19 20
f 21 22 23 24
f 25 26 27 28
f 29 30 31 32
f 33 34 35 36
f 37 38 39 40
f 41 42 43 44
f 45 46 47 48
f 49 50 51 52
f 53 54 55 56
f 57 58 59 60
f 61 62 63 64
f 65 66 67 68
f 69 70 71 72
f 73 74 75 76
f 77 78 79 80

o Pardoseala_aripa
usemtl mat_pardoseala
f 81 82 83 84
f 85 86 87 88
f 89 90 91 92
f 93 94 95 96
f 97 98 99 100

o Perete_BBQ
usemtl mat_antracit
f 101 102 103 104
f 105 106 107 108
f 109 110 111 112
f 113 114 115 116
f 117 118 119 120

o Perete_aripa_vest
usemtl mat_calcar
f 121 122 123 124
f 125 126 127 128
f 129 130 131 132
f 133 134 135 136
f 137 138 139 140

o Perete_aripa_sud
usemtl mat_calcar
f 141 142 143 144
f 145 146 147 148
f 149 150 151 152
f 153 154 155 156
f 157 158 159 160

o Perete_hol_nord
usemtl mat_calcar
f 161 162 163 164
f 165 166 167 168
f 169 170 171 172
f 173 174 175 176
f 177 178 179 180

o Vitraj_bara_nord
usemtl mat_sticla
f 181 182 183 184
f 185 186 187 188
f 189 190 191 192
f 193 194 195 196
f 197 198 199 200

o Vitraj_bara_sud
usemtl mat_sticla
f 201 202 203 204
f 205 206 207 208
f 209 210 211 212
f 213 214 215 216
f 217 218 219 220

o Vitraj_relaxare_nord
usemtl mat_sticla
f 221 222 223 224
f 225 226 227 228
f 229 230 231 232
f 233 234 235 236
f 237 238 239 240

o Vitraj_est
usemtl mat_sticla
f 241 242 243 244
f 245 246 247 248
f 249 250 251 252
f 253 254 255 256
f 257 258 259 260

o Partitie_hol
usemtl mat_partitie
f 261 262 263 264
f 265 266 267 268
f 269 270 271 272
f 273 274 275 276
f 277 278 279 280

o Partitie_relaxare_sala
usemtl mat_partitie
f 281 282 283 284
f 285 286 287 288
f 289 290 291 292
f 293 294 295 296
f 297 298 299 300

o Partitie_baie_nord
usemtl mat_partitie
f 301 302 303 304
f 305 306 307 308
f 309 310 311 312
f 313 314 315 316
f 317 318 319 320

o Partitie_baie_sud
usemtl mat_partitie
f 321 322 323 324
f 325 326 327 328
f 329 330 331 332
f 333 334 335 336
f 337 338 339 340

o Partitie_baie_est
usemtl mat_partitie
f 341 342 343 344
f 345 346 347 348
f 349 350 351 352
f 353 354 355 356
f 357 358 359 360

o Sauna_nord
usemtl mat_lemn
f 361 362 363 364
f 365 366 367 368
f 369 370 371 372
f 373 374 375 376
f 377 378 379 380

o Sauna_est
usemtl mat_lemn
f 381 382 383 384
f 385 386 387 388
f 389 390 391 392
f 393 394 395 396
f 397 398 399 400

o Acoperis_bara
usemtl mat_acoperis
f 401 402 403 404
f 405 406 407 408
f 409 410 411 412
f 413 414 415 416
f 417 418 419 420

o Acoperis_aripa
usemtl mat_acoperis
f 421 422 423 424
f 425 426 427 428
f 429 430 431 432
f 433 434 435 436
f 437 438 439 440

o Bazin
usemtl mat_pardoseala
f 441 442 443 444
f 445 446 447 448
f 449 450 451 452
f 453 454 455 456
f 457 458 459 460

o Apa_piscina
usemtl mat_apa
f 461 462 463 464

o Terasa_jacuzzi
usemtl mat_lemn
f 465 466 467 468
f 469 470 471 472
f 473 474 475 476
f 477 478 479 480
f 481 482 483 484

o Jacuzzi
usemtl mat_lemn
f 485 486 514 513
f 486 487 515 514
f 487 488 516 515
f 488 489 517 516
f 489 490 518 517
f 490 491 519 518
f 491 492 520 519
f 492 493 521 520
f 493 494 522 521
f 494 495 523 522
f 495 496 524 523
f 496 497 525 524
f 497 498 526 525
f 498 499 527 526
f 499 500 528 527
f 500 501 529 528
f 501 502 530 529
f 502 503 531 530
f 503 504 532 531
f 504 505 533 532
f 505 506 534 533
f 506 507 535 534
f 507 508 536 535
f 508 509 537 536
f 509 510 538 537
f 510 511 539 538
f 511 512 540 539
f 512 485 513 540
f 541 542 543 544
f 545 546 547 548
f 549 550 551 552
f 553 554 555 556
f 557 558 559 560
f 561 562 563 564
f 565 566 567 568
f 569 570 571 572
f 573 574 575 576
f 577 578 579 580
f 581 582 583 584
f 585 586 587 588
f 589 590 591 592
f 593 594 595 596
f 597 598 599 600
f 601 602 603 604
f 605 606 607 608
f 609 610 611 612
f 613 614 615 616
f 617 618 619 620
f 621 622 623 624
f 625 626 627 628
f 629 630 631 632
f 633 634 635 636
f 637 638 639 640
f 641 642 643 644
f 645 646 647 648
f 649 650 651 652
f 653 654 682 681
f 654 655 683 682
f 655 656 684 683
f 656 657 685 684
f 657 658 686 685
f 658 659 687 686
f 659 660 688 687
f 660 661 689 688
f 661 662 690 689
f 662 663 691 690
f 663 664 692 691
f 664 665 693 692
f 665 666 694 693
f 666 667 695 694
f 667 668 696 695
f 668 669 697 696
f 669 670 698 697
f 670 671 699 698
f 671 672 700 699
f 672 673 701 700
f 673 674 702 701
f 674 675 703 702
f 675 676 704 703
f 676 677 705 704
f 677 678 706 705
f 678 679 707 706
f 679 680 708 707
f 680 653 681 708

o Apa_jacuzzi
usemtl mat_apa
f 709 710 711 712 713 714 715 716 717 718 719 720 721 722 723 724 725 726 727 728 729 730 731 732 733 734 735 736

o Bucatarie_blat
usemtl mat_mobilier
f 737 738 739 740
f 741 742 743 744
f 745 746 747 748
f 749 750 751 752
f 753 754 755 756

o Gratar
usemtl mat_gratar
f 757 758 759 760
f 761 762 763 764
f 765 766 767 768
f 769 770 771 772
f 773 774 775 776

o Hota
usemtl mat_gratar
f 777 778 779 780
f 781 782 783 784
f 785 786 787 788
f 789 790 791 792
f 793 794 795 796

o Masa
usemtl mat_mobilier
f 797 798 799 800
f 801 802 803 804
f 805 806 807 808
f 809 810 811 812
f 813 814 815 816

o Scaune
usemtl mat_mobilier
f 817 818 819 820
f 821 822 823 824
f 825 826 827 828
f 829 830 831 832
f 833 834 835 836
f 837 838 839 840
f 841 842 843 844
f 845 846 847 848
f 849 850 851 852
f 853 854 855 856
f 857 858 859 860
f 861 862 863 864
f 865 866 867 868
f 869 870 871 872
f 873 874 875 876
f 877 878 879 880
f 881 882 883 884
f 885 886 887 888
f 889 890 891 892
f 893 894 895 896
f 897 898 899 900
f 901 902 903 904
f 905 906 907 908
f 909 910 911 912
f 913 914 915 916
f 917 918 919 920
f 921 922 923 924
f 925 926 927 928
f 929 930 931 932
f 933 934 935 936
f 937 938 939 940
f 941 942 943 944
f 945 946 947 948
f 949 950 951 952
f 953 954 955 956
f 957 958 959 960
f 961 962 963 964
f 965 966 967 968
f 969 970 971 972
f 973 974 975 976
f 977 978 979 980
f 981 982 983 984
f 985 986 987 988
f 989 990 991 992
f 993 994 995 996
f 997 998 999 1000
f 1001 1002 1003 1004
f 1005 1006 1007 1008
f 1009 1010 1011 1012
f 1013 1014 1015 1016

o Pat_relaxare
usemtl mat_mobilier
f 1017 1018 1019 1020
f 1021 1022 1023 1024
f 1025 1026 1027 1028
f 1029 1030 1031 1032
f 1033 1034 1035 1036
f 1037 1038 1039 1040
f 1041 1042 1043 1044
f 1045 1046 1047 1048
f 1049 1050 1051 1052
f 1053 1054 1055 1056
f 1057 1058 1059 1060
f 1061 1062 1063 1064
f 1065 1066 1067 1068
f 1069 1070 1071 1072
f 1073 1074 1075 1076
f 1077 1078 1079 1080
f 1081 1082 1083 1084
f 1085 1086 1087 1088
f 1089 1090 1091 1092
f 1093 1094 1095 1096

o Cabine_baie
usemtl mat_partitie
f 1097 1098 1099 1100
f 1101 1102 1103 1104
f 1105 1106 1107 1108
f 1109 1110 1111 1112
f 1113 1114 1115 1116
f 1117 1118 1119 1120
f 1121 1122 1123 1124
f 1125 1126 1127 1128
f 1129 1130 1131 1132
f 1133 1134 1135 1136
f 1137 1138 1139 1140
f 1141 1142 1143 1144
f 1145 1146 1147 1148
f 1149 1150 1151 1152
f 1153 1154 1155 1156
f 1157 1158 1159 1160
f 1161 1162 1163 1164
f 1165 1166 1167 1168
f 1169 1170 1171 1172
f 1173 1174 1175 1176

o Chiuvete
usemtl mat_mobilier
f 1177 1178 1179 1180
f 1181 1182 1183 1184
f 1185 1186 1187 1188
f 1189 1190 1191 1192
f 1193 1194 1195 1196
f 1197 1198 1199 1200
f 1201 1202 1203 1204
f 1205 1206 1207 1208
f 1209 1210 1211 1212
f 1213 1214 1215 1216

o Banca_sauna
usemtl mat_lemn
f 1217 1218 1219 1220
f 1221 1222 1223 1224
f 1225 1226 1227 1228
f 1229 1230 1231 1232
f 1233 1234 1235 1236
f 1237 1238 1239 1240
f 1241 1242 1243 1244
f 1245 1246 1247 1248
f 1249 1250 1251 1252
f 1253 1254 1255 1256

o Banda_alergat
usemtl mat_mobilier
f 1257 1258 1259 1260
f 1261 1262 1263 1264
f 1265 1266 1267 1268
f 1269 1270 1271 1272
f 1273 1274 1275 1276

o Rastel
usemtl mat_mobilier
f 1277 1278 1279 1280
f 1281 1282 1283 1284
f 1285 1286 1287 1288
f 1289 1290 1291 1292
f 1293 1294 1295 1296

o Bench
usemtl mat_mobilier
f 1297 1298 1299 1300
f 1301 1302 1303 1304
f 1305 1306 1307 1308
f 1309 1310 1311 1312
f 1313 1314 1315 1316

o Aparat_1
usemtl mat_mobilier
f 1317 1318 1319 1320
f 1321 1322 1323 1324
f 1325 1326 1327 1328
f 1329 1330 1331 1332
f 1333 1334 1335 1336

o Aparat_2
usemtl mat_mobilier
f 1337 1338 1339 1340
f 1341 1342 1343 1344
f 1345 1346 1347 1348
f 1349 1350 1351 1352
f 1353 1354 1355 1356
