<svg xmlns="http://www.w3.org/2000/svg" width="2210" height="2012" viewBox="0 0 2210 2012">
<defs><marker id="sg" viewBox="0 0 10 10" refX="5" refY="5" markerWidth="7" markerHeight="7" orient="auto-start-reverse"><path d="M 0 0 L 10 5 L 0 10 z" fill="#7a3fb8"/></marker></defs>
<rect width="2210" height="2012" fill="#ffffff"/>
<g stroke="#eceef1" stroke-width="1">
<line x1="130.0" y1="130.0" x2="130.0" y2="1402.0" />
<line x1="190.0" y1="130.0" x2="190.0" y2="1402.0" />
<line x1="250.0" y1="130.0" x2="250.0" y2="1402.0" />
<line x1="310.0" y1="130.0" x2="310.0" y2="1402.0" />
<line x1="370.0" y1="130.0" x2="370.0" y2="1402.0" />
<line x1="430.0" y1="130.0" x2="430.0" y2="1402.0" />
<line x1="490.0" y1="130.0" x2="490.0" y2="1402.0" />
<line x1="550.0" y1="130.0" x2="550.0" y2="1402.0" />
<line x1="610.0" y1="130.0" x2="610.0" y2="1402.0" />
<line x1="670.0" y1="130.0" x2="670.0" y2="1402.0" />
<line x1="730.0" y1="130.0" x2="730.0" y2="1402.0" />
<line x1="790.0" y1="130.0" x2="790.0" y2="1402.0" />
<line x1="850.0" y1="130.0" x2="850.0" y2="1402.0" />
<line x1="910.0" y1="130.0" x2="910.0" y2="1402.0" />
<line x1="970.0" y1="130.0" x2="970.0" y2="1402.0" />
<line x1="1030.0" y1="130.0" x2="1030.0" y2="1402.0" />
<line x1="1090.0" y1="130.0" x2="1090.0" y2="1402.0" />
<line x1="1150.0" y1="130.0" x2="1150.0" y2="1402.0" />
<line x1="1210.0" y1="130.0" x2="1210.0" y2="1402.0" />
<line x1="1270.0" y1="130.0" x2="1270.0" y2="1402.0" />
<line x1="1330.0" y1="130.0" x2="1330.0" y2="1402.0" />
<line x1="1390.0" y1="130.0" x2="1390.0" y2="1402.0" />
<line x1="1450.0" y1="130.0" x2="1450.0" y2="1402.0" />
<line x1="1510.0" y1="130.0" x2="1510.0" y2="1402.0" />
<line x1="1570.0" y1="130.0" x2="1570.0" y2="1402.0" />
<line x1="1630.0" y1="130.0" x2="1630.0" y2="1402.0" />
<line x1="1690.0" y1="130.0" x2="1690.0" y2="1402.0" />
<line x1="1750.0" y1="130.0" x2="1750.0" y2="1402.0" />
<line x1="1810.0" y1="130.0" x2="1810.0" y2="1402.0" />
<line x1="1870.0" y1="130.0" x2="1870.0" y2="1402.0" />
<line x1="1930.0" y1="130.0" x2="1930.0" y2="1402.0" />
<line x1="1990.0" y1="130.0" x2="1990.0" y2="1402.0" />
<line x1="2050.0" y1="130.0" x2="2050.0" y2="1402.0" />
<line x1="130.0" y1="166.0" x2="2080.0" y2="166.0" />
<line x1="130.0" y1="226.0" x2="2080.0" y2="226.0" />
<line x1="130.0" y1="286.0" x2="2080.0" y2="286.0" />
<line x1="130.0" y1="346.0" x2="2080.0" y2="346.0" />
<line x1="130.0" y1="406.0" x2="2080.0" y2="406.0" />
<line x1="130.0" y1="466.0" x2="2080.0" y2="466.0" />
<line x1="130.0" y1="526.0" x2="2080.0" y2="526.0" />
<line x1="130.0" y1="586.0" x2="2080.0" y2="586.0" />
<line x1="130.0" y1="646.0" x2="2080.0" y2="646.0" />
<line x1="130.0" y1="706.0" x2="2080.0" y2="706.0" />
<line x1="130.0" y1="766.0" x2="2080.0" y2="766.0" />
<line x1="130.0" y1="826.0" x2="2080.0" y2="826.0" />
<line x1="130.0" y1="886.0" x2="2080.0" y2="886.0" />
<line x1="130.0" y1="946.0" x2="2080.0" y2="946.0" />
<line x1="130.0" y1="1006.0" x2="2080.0" y2="1006.0" />
<line x1="130.0" y1="1066.0" x2="2080.0" y2="1066.0" />
<line x1="130.0" y1="1126.0" x2="2080.0" y2="1126.0" />
<line x1="130.0" y1="1186.0" x2="2080.0" y2="1186.0" />
<line x1="130.0" y1="1246.0" x2="2080.0" y2="1246.0" />
<line x1="130.0" y1="1306.0" x2="2080.0" y2="1306.0" />
<line x1="130.0" y1="1366.0" x2="2080.0" y2="1366.0" />
</g>
<rect x="310.0" y="526.0" width="420.0" height="360.0" fill="#fbfbfc" stroke="none"/>
<rect x="730.0" y="526.0" width="480.0" height="360.0" fill="#fbfbfc" stroke="none"/>
<rect x="1210.0" y="526.0" width="60.0" height="720.0" fill="#fbfbfc" stroke="none"/>
<rect x="1270.0" y="526.0" width="540.0" height="420.0" fill="#fbfbfc" stroke="none"/>
<rect x="1270.0" y="724.0" width="120.0" height="204.0" fill="#fbfbfc" stroke="none"/>
<rect x="1270.0" y="946.0" width="240.0" height="300.0" fill="#fbfbfc" stroke="none"/>
<rect x="1510.0" y="946.0" width="300.0" height="300.0" fill="#fbfbfc" stroke="none"/>
<rect x="1270.0" y="346.0" width="360.0" height="180.0" fill="#f2ede4" stroke="none"/>
<rect x="1210.0" y="466.0" width="60.0" height="60.0" fill="#f2ede4" stroke="none"/>
<rect x="1270.0" y="346.0" width="360.0" height="180.0" fill="none" stroke="#a9a293" stroke-width="2.4" stroke-dasharray="10 7"/>
<rect x="1210.0" y="466.0" width="60.0" height="60.0" fill="none" stroke="#a9a293" stroke-width="2.4" stroke-dasharray="10 7"/>
<g fill="none" stroke="#8a8f98" stroke-width="2.4">
<rect x="319.0" y="556.0" width="42.0" height="300.0" stroke="#8a8f98" stroke-width="2.4" fill="#eef0f3"/>
<rect x="319.0" y="670.0" width="42.0" height="72.0" stroke="#8a8f98" stroke-width="2.4" fill="#d8dce2"/>
<rect x="514.0" y="658.0" width="144.0" height="96.0" stroke="#8a8f98" stroke-width="2.4" fill="#eef0f3"/>
<rect x="487.0" y="667.0" width="24.0" height="21.0" stroke="#8a8f98" stroke-width="2.4" fill="#eef0f3"/>
<rect x="661.0" y="667.0" width="24.0" height="21.0" stroke="#8a8f98" stroke-width="2.4" fill="#eef0f3"/>
<rect x="487.0" y="694.0" width="24.0" height="21.0" stroke="#8a8f98" stroke-width="2.4" fill="#eef0f3"/>
<rect x="661.0" y="694.0" width="24.0" height="21.0" stroke="#8a8f98" stroke-width="2.4" fill="#eef0f3"/>
<rect x="487.0" y="721.0" width="24.0" height="21.0" stroke="#8a8f98" stroke-width="2.4" fill="#eef0f3"/>
<rect x="661.0" y="721.0" width="24.0" height="21.0" stroke="#8a8f98" stroke-width="2.4" fill="#eef0f3"/>
<rect x="487.0" y="748.0" width="24.0" height="21.0" stroke="#8a8f98" stroke-width="2.4" fill="#eef0f3"/>
<rect x="661.0" y="748.0" width="24.0" height="21.0" stroke="#8a8f98" stroke-width="2.4" fill="#eef0f3"/>
<rect x="790.0" y="616.0" width="360.0" height="180.0" stroke="#2b3fc4" stroke-width="2.6" fill="#d9edf7"/>
<line x1="790.0" y1="616.0" x2="790.0" y2="796.0" stroke="#7fb6d4" stroke-width="1.8"/>
<line x1="811.0" y1="616.0" x2="811.0" y2="796.0" stroke="#7fb6d4" stroke-width="1.8"/>
<line x1="832.0" y1="616.0" x2="832.0" y2="796.0" stroke="#7fb6d4" stroke-width="1.8"/>
<rect x="1450.0" y="556.0" width="78.0" height="108.0" stroke="#8a8f98" stroke-width="2.4" fill="#eef0f3"/>
<rect x="1450.0" y="688.0" width="78.0" height="108.0" stroke="#8a8f98" stroke-width="2.4" fill="#eef0f3"/>
<rect x="1570.0" y="556.0" width="78.0" height="108.0" stroke="#8a8f98" stroke-width="2.4" fill="#eef0f3"/>
<rect x="1570.0" y="688.0" width="78.0" height="108.0" stroke="#8a8f98" stroke-width="2.4" fill="#eef0f3"/>
<rect x="1690.0" y="556.0" width="78.0" height="108.0" stroke="#8a8f98" stroke-width="2.4" fill="#eef0f3"/>
<rect x="1690.0" y="688.0" width="78.0" height="108.0" stroke="#8a8f98" stroke-width="2.4" fill="#eef0f3"/>
<rect x="1306.0" y="562.0" width="72.0" height="120.0" stroke="#8a8f98" stroke-width="2.4" fill="#eef0f3"/>
<rect x="1306.0" y="706.0" width="72.0" height="6.0" stroke="#8a8f98" stroke-width="2.4" fill="#eef0f3"/>
<rect x="1330.0" y="724.0" width="60.0" height="54.0" stroke="#8a8f98" stroke-width="2.4" fill="#eef0f3"/>
<text x="1360.0" y="756.0" font-family="Helvetica,Arial,sans-serif" font-size="15" font-weight="600" fill="#5c6169" text-anchor="middle" style="">DUS</text>
<rect x="1330.0" y="778.0" width="60.0" height="48.0" stroke="#8a8f98" stroke-width="2.4" fill="#eef0f3"/>
<text x="1360.0" y="807.0" font-family="Helvetica,Arial,sans-serif" font-size="15" font-weight="600" fill="#5c6169" text-anchor="middle" style="">WC</text>
<rect x="1330.0" y="826.0" width="60.0" height="48.0" stroke="#8a8f98" stroke-width="2.4" fill="#eef0f3"/>
<text x="1360.0" y="855.0" font-family="Helvetica,Arial,sans-serif" font-size="15" font-weight="600" fill="#5c6169" text-anchor="middle" style="">WC</text>
<rect x="1330.0" y="874.0" width="60.0" height="54.0" stroke="#8a8f98" stroke-width="2.4" fill="#eef0f3"/>
<text x="1360.0" y="906.0" font-family="Helvetica,Arial,sans-serif" font-size="15" font-weight="600" fill="#5c6169" text-anchor="middle" style="">DUS</text>
<rect x="1271.2" y="742.0" width="25.8" height="36.0" stroke="#8a8f98" stroke-width="2.4" fill="#eef0f3"/>
<rect x="1271.2" y="874.0" width="25.8" height="36.0" stroke="#8a8f98" stroke-width="2.4" fill="#eef0f3"/>
<rect x="1273.0" y="1126.0" width="147.0" height="117.0" stroke="#8a8f98" stroke-width="2.6" fill="#f3ece2"/>
<rect x="1288.0" y="1141.0" width="117.0" height="36.0" stroke="#8a8f98" stroke-width="2.4" fill="#eef0f3"/>
<rect x="1369.0" y="1177.0" width="36.0" height="48.0" stroke="#8a8f98" stroke-width="2.4" fill="#eef0f3"/>
<circle cx="1465.0" cy="1204.0" r="21.0" stroke="#8a8f98" stroke-width="2.2" fill="#eef0f3"/>
<rect x="1294.0" y="982.0" width="132.0" height="42.0" stroke="#8a8f98" stroke-width="2.4" fill="#eef0f3"/>
<rect x="1534.0" y="970.0" width="54.0" height="126.0" stroke="#8a8f98" stroke-width="2.4" fill="#eef0f3"/>
<rect x="1618.0" y="970.0" width="168.0" height="36.0" stroke="#8a8f98" stroke-width="2.4" fill="#eef0f3"/>
<rect x="1642.0" y="1054.0" width="90.0" height="36.0" stroke="#8a8f98" stroke-width="2.4" fill="#eef0f3"/>
<rect x="1534.0" y="1144.0" width="90.0" height="66.0" stroke="#8a8f98" stroke-width="2.4" fill="#eef0f3"/>
<rect x="1654.0" y="1144.0" width="90.0" height="66.0" stroke="#8a8f98" stroke-width="2.4" fill="#eef0f3"/>
<circle cx="1450.0" cy="436.0" r="69.0" stroke="#2b3fc4" stroke-width="3.0" fill="#d9edf7"/>
<circle cx="1450.0" cy="436.0" r="49.2" stroke="#7fb6d4" stroke-width="1.8" fill="none"/>
</g>
<g stroke-linecap="butt">
<line x1="310.0" y1="526.0" x2="310.0" y2="886.0" stroke="#141414" stroke-width="10"/>
<line x1="310.0" y1="526.0" x2="1210.0" y2="526.0" stroke="#22b3f0" stroke-width="10"/>
<line x1="310.0" y1="886.0" x2="1210.0" y2="886.0" stroke="#22b3f0" stroke-width="10"/>
<line x1="1210.0" y1="526.0" x2="1210.0" y2="1246.0" stroke="#141414" stroke-width="10"/>
<line x1="1210.0" y1="1246.0" x2="1810.0" y2="1246.0" stroke="#141414" stroke-width="10"/>
<line x1="1210.0" y1="526.0" x2="1270.0" y2="526.0" stroke="#141414" stroke-width="10"/>
<line x1="1270.0" y1="526.0" x2="1810.0" y2="526.0" stroke="#2b3fc4" stroke-width="10"/>
<line x1="1810.0" y1="526.0" x2="1810.0" y2="946.0" stroke="#2b3fc4" stroke-width="10"/>
<line x1="1810.0" y1="946.0" x2="1810.0" y2="1246.0" stroke="#2b3fc4" stroke-width="10"/>
<line x1="1270.0" y1="526.0" x2="1270.0" y2="1246.0" stroke="#141414" stroke-width="10"/>
<line x1="1270.0" y1="946.0" x2="1810.0" y2="946.0" stroke="#141414" stroke-width="10"/>
<line x1="1510.0" y1="946.0" x2="1510.0" y2="1246.0" stroke="#141414" stroke-width="10"/>
<line x1="1270.0" y1="724.0" x2="1390.0" y2="724.0" stroke="#141414" stroke-width="10"/>
<line x1="1270.0" y1="928.0" x2="1390.0" y2="928.0" stroke="#141414" stroke-width="10"/>
<line x1="1390.0" y1="724.0" x2="1390.0" y2="928.0" stroke="#141414" stroke-width="10"/>
</g>
<g stroke-linecap="butt">
<line x1="484.0" y1="886.0" x2="544.0" y2="886.0" stroke="#ffffff" stroke-width="14"/>
<line x1="484.0" y1="886.0" x2="544.0" y2="886.0" stroke="#c1121f" stroke-width="10"/>
<line x1="886.0" y1="886.0" x2="946.0" y2="886.0" stroke="#ffffff" stroke-width="14"/>
<line x1="886.0" y1="886.0" x2="946.0" y2="886.0" stroke="#c1121f" stroke-width="10"/>
<line x1="1210.0" y1="526.0" x2="1270.0" y2="526.0" stroke="#ffffff" stroke-width="14"/>
<line x1="1210.0" y1="526.0" x2="1270.0" y2="526.0" stroke="#c1121f" stroke-width="10"/>
<line x1="1210.0" y1="814.0" x2="1210.0" y2="874.0" stroke="#ffffff" stroke-width="14"/>
<line x1="1210.0" y1="814.0" x2="1210.0" y2="874.0" stroke="#c1121f" stroke-width="10"/>
<line x1="1270.0" y1="682.0" x2="1270.0" y2="742.0" stroke="#ffffff" stroke-width="14"/>
<line x1="1270.0" y1="682.0" x2="1270.0" y2="742.0" stroke="#c1121f" stroke-width="10"/>
<line x1="1270.0" y1="838.0" x2="1270.0" y2="898.0" stroke="#ffffff" stroke-width="14"/>
<line x1="1270.0" y1="838.0" x2="1270.0" y2="898.0" stroke="#c1121f" stroke-width="10"/>
<line x1="1270.0" y1="970.0" x2="1270.0" y2="1030.0" stroke="#ffffff" stroke-width="14"/>
<line x1="1270.0" y1="970.0" x2="1270.0" y2="1030.0" stroke="#c1121f" stroke-width="10"/>
<line x1="1270.0" y1="1138.0" x2="1270.0" y2="1198.0" stroke="#ffffff" stroke-width="14"/>
<line x1="1270.0" y1="1138.0" x2="1270.0" y2="1198.0" stroke="#c1121f" stroke-width="10"/>
</g>
<text x="520.0" y="826.0" font-family="Helvetica,Arial,sans-serif" font-size="78" font-weight="700" fill="#1d2126" text-anchor="middle" style="opacity:0.17">1</text>
<text x="520.0" y="851.2" font-family="Helvetica,Arial,sans-serif" font-size="24" font-weight="600" fill="#3b4149" text-anchor="middle" style="">BBQ + bucatarie</text>
<text x="970.0" y="844.0" font-family="Helvetica,Arial,sans-serif" font-size="78" font-weight="700" fill="#1d2126" text-anchor="middle" style="opacity:0.17">2</text>
<text x="970.0" y="869.2" font-family="Helvetica,Arial,sans-serif" font-size="24" font-weight="600" fill="#3b4149" text-anchor="middle" style="">piscina</text>
<text x="1240.0" y="646.0" font-family="Helvetica,Arial,sans-serif" font-size="52" font-weight="700" fill="#1d2126" text-anchor="middle" style="opacity:0.17">4</text>
<text x="1240.0" y="664.0" font-family="Helvetica,Arial,sans-serif" font-size="21" font-weight="600" fill="#3b4149" text-anchor="middle" style="">hol</text>
<text x="1570.0" y="862.0" font-family="Helvetica,Arial,sans-serif" font-size="78" font-weight="700" fill="#1d2126" text-anchor="middle" style="opacity:0.17">5</text>
<text x="1570.0" y="887.2" font-family="Helvetica,Arial,sans-serif" font-size="24" font-weight="600" fill="#3b4149" text-anchor="middle" style="">relaxare</text>
<text x="1330.0" y="826.0" font-family="Helvetica,Arial,sans-serif" font-size="44" font-weight="700" fill="#1d2126" text-anchor="middle" style="opacity:0.17">8</text>
<text x="1330.0" y="844.0" font-family="Helvetica,Arial,sans-serif" font-size="21" font-weight="600" fill="#3b4149" text-anchor="middle" style="">bai</text>
<text x="1384.0" y="1060.0" font-family="Helvetica,Arial,sans-serif" font-size="78" font-weight="700" fill="#1d2126" text-anchor="middle" style="opacity:0.17">6</text>
<text x="1384.0" y="1085.2" font-family="Helvetica,Arial,sans-serif" font-size="24" font-weight="600" fill="#3b4149" text-anchor="middle" style="">sauna</text>
<text x="1660.0" y="1120.0" font-family="Helvetica,Arial,sans-serif" font-size="78" font-weight="700" fill="#1d2126" text-anchor="middle" style="opacity:0.17">3</text>
<text x="1660.0" y="1145.2" font-family="Helvetica,Arial,sans-serif" font-size="24" font-weight="600" fill="#3b4149" text-anchor="middle" style="">fitness</text>
<text x="1564.0" y="436.0" font-family="Helvetica,Arial,sans-serif" font-size="78" font-weight="700" fill="#1d2126" text-anchor="middle" style="opacity:0.17">7</text>
<text x="1564.0" y="461.2" font-family="Helvetica,Arial,sans-serif" font-size="24" font-weight="600" fill="#3b4149" text-anchor="middle" style="">jacuzzi</text>
<line x1="310.0" y1="526.0" x2="310.0" y2="214.0" stroke="#7a3fb8" stroke-width="1.4" opacity="0.5"/>
<line x1="1810.0" y1="526.0" x2="1810.0" y2="214.0" stroke="#7a3fb8" stroke-width="1.4" opacity="0.5"/>
<line x1="310.0" y1="214.0" x2="1810.0" y2="214.0" stroke="#7a3fb8" stroke-width="2.2" marker-start="url(#sg)" marker-end="url(#sg)"/>
<text x="1060.0" y="203.0" font-family="Helvetica,Arial,sans-serif" font-size="25" font-weight="600" fill="#7a3fb8" text-anchor="middle" style="">25 m</text>
<line x1="310.0" y1="526.0" x2="310.0" y2="442.0" stroke="#7a3fb8" stroke-width="1.4" opacity="0.5"/>
<line x1="730.0" y1="526.0" x2="730.0" y2="442.0" stroke="#7a3fb8" stroke-width="1.4" opacity="0.5"/>
<line x1="310.0" y1="442.0" x2="730.0" y2="442.0" stroke="#7a3fb8" stroke-width="2.2" marker-start="url(#sg)" marker-end="url(#sg)"/>
<text x="520.0" y="431.0" font-family="Helvetica,Arial,sans-serif" font-size="25" font-weight="600" fill="#7a3fb8" text-anchor="middle" style="">7 m</text>
<line x1="730.0" y1="526.0" x2="730.0" y2="442.0" stroke="#7a3fb8" stroke-width="1.4" opacity="0.5"/>
<line x1="1210.0" y1="526.0" x2="1210.0" y2="442.0" stroke="#7a3fb8" stroke-width="1.4" opacity="0.5"/>
<line x1="730.0" y1="442.0" x2="1210.0" y2="442.0" stroke="#7a3fb8" stroke-width="2.2" marker-start="url(#sg)" marker-end="url(#sg)"/>
<text x="970.0" y="431.0" font-family="Helvetica,Arial,sans-serif" font-size="25" font-weight="600" fill="#7a3fb8" text-anchor="middle" style="">8 m</text>
<line x1="1630.0" y1="526.0" x2="1630.0" y2="442.0" stroke="#7a3fb8" stroke-width="1.4" opacity="0.5"/>
<line x1="1810.0" y1="526.0" x2="1810.0" y2="442.0" stroke="#7a3fb8" stroke-width="1.4" opacity="0.5"/>
<line x1="1630.0" y1="442.0" x2="1810.0" y2="442.0" stroke="#7a3fb8" stroke-width="2.2" marker-start="url(#sg)" marker-end="url(#sg)"/>
<text x="1720.0" y="431.0" font-family="Helvetica,Arial,sans-serif" font-size="25" font-weight="600" fill="#7a3fb8" text-anchor="middle" style="">3 m</text>
<line x1="1270.0" y1="346.0" x2="1270.0" y2="274.0" stroke="#7a3fb8" stroke-width="1.4" opacity="0.5"/>
<line x1="1630.0" y1="346.0" x2="1630.0" y2="274.0" stroke="#7a3fb8" stroke-width="1.4" opacity="0.5"/>
<line x1="1270.0" y1="274.0" x2="1630.0" y2="274.0" stroke="#7a3fb8" stroke-width="2.2" marker-start="url(#sg)" marker-end="url(#sg)"/>
<text x="1450.0" y="263.0" font-family="Helvetica,Arial,sans-serif" font-size="25" font-weight="600" fill="#7a3fb8" text-anchor="middle" style="">6 m</text>
<line x1="310.0" y1="526.0" x2="220.0" y2="526.0" stroke="#7a3fb8" stroke-width="1.4" opacity="0.5"/>
<line x1="310.0" y1="886.0" x2="220.0" y2="886.0" stroke="#7a3fb8" stroke-width="1.4" opacity="0.5"/>
<line x1="220.0" y1="526.0" x2="220.0" y2="886.0" stroke="#7a3fb8" stroke-width="2.2" marker-start="url(#sg)" marker-end="url(#sg)"/>
<text x="220.0" y="714.0" font-family="Helvetica,Arial,sans-serif" font-size="25" font-weight="600" fill="#7a3fb8" text-anchor="middle" style="writing-mode:tb;glyph-orientation-vertical:0">6 m</text>
<line x1="1810.0" y1="526.0" x2="1990.0" y2="526.0" stroke="#7a3fb8" stroke-width="1.4" opacity="0.5"/>
<line x1="1810.0" y1="1246.0" x2="1990.0" y2="1246.0" stroke="#7a3fb8" stroke-width="1.4" opacity="0.5"/>
<line x1="1990.0" y1="526.0" x2="1990.0" y2="1246.0" stroke="#7a3fb8" stroke-width="2.2" marker-start="url(#sg)" marker-end="url(#sg)"/>
<text x="1990.0" y="894.0" font-family="Helvetica,Arial,sans-serif" font-size="25" font-weight="600" fill="#7a3fb8" text-anchor="middle" style="writing-mode:tb;glyph-orientation-vertical:0">12 m</text>
<line x1="1810.0" y1="946.0" x2="1894.0" y2="946.0" stroke="#7a3fb8" stroke-width="1.4" opacity="0.5"/>
<line x1="1810.0" y1="1246.0" x2="1894.0" y2="1246.0" stroke="#7a3fb8" stroke-width="1.4" opacity="0.5"/>
<line x1="1894.0" y1="946.0" x2="1894.0" y2="1246.0" stroke="#7a3fb8" stroke-width="2.2" marker-start="url(#sg)" marker-end="url(#sg)"/>
<text x="1894.0" y="1104.0" font-family="Helvetica,Arial,sans-serif" font-size="25" font-weight="600" fill="#7a3fb8" text-anchor="middle" style="writing-mode:tb;glyph-orientation-vertical:0">5 m</text>
<line x1="1810.0" y1="526.0" x2="1894.0" y2="526.0" stroke="#7a3fb8" stroke-width="1.4" opacity="0.5"/>
<line x1="1810.0" y1="946.0" x2="1894.0" y2="946.0" stroke="#7a3fb8" stroke-width="1.4" opacity="0.5"/>
<line x1="1894.0" y1="526.0" x2="1894.0" y2="946.0" stroke="#7a3fb8" stroke-width="2.2" marker-start="url(#sg)" marker-end="url(#sg)" stroke-dasharray="9 6"/>
<text x="1894.0" y="744.0" font-family="Helvetica,Arial,sans-serif" font-size="25" font-weight="600" fill="#7a3fb8" text-anchor="middle" style="writing-mode:tb;glyph-orientation-vertical:0">7 m</text>
<line x1="1210.0" y1="1246.0" x2="1210.0" y2="1324.0" stroke="#7a3fb8" stroke-width="1.4" opacity="0.5"/>
<line x1="1270.0" y1="1246.0" x2="1270.0" y2="1324.0" stroke="#7a3fb8" stroke-width="1.4" opacity="0.5"/>
<line x1="1210.0" y1="1324.0" x2="1270.0" y2="1324.0" stroke="#7a3fb8" stroke-width="2.2" marker-start="url(#sg)" marker-end="url(#sg)"/>
<text x="1240.0" y="1313.0" font-family="Helvetica,Arial,sans-serif" font-size="25" font-weight="600" fill="#7a3fb8" text-anchor="middle" style="">1 m</text>
<line x1="1270.0" y1="1246.0" x2="1270.0" y2="1324.0" stroke="#7a3fb8" stroke-width="1.4" opacity="0.5"/>
<line x1="1420.0" y1="1246.0" x2="1420.0" y2="1324.0" stroke="#7a3fb8" stroke-width="1.4" opacity="0.5"/>
<line x1="1270.0" y1="1324.0" x2="1420.0" y2="1324.0" stroke="#7a3fb8" stroke-width="2.2" marker-start="url(#sg)" marker-end="url(#sg)"/>
<text x="1345.0" y="1313.0" font-family="Helvetica,Arial,sans-serif" font-size="25" font-weight="600" fill="#7a3fb8" text-anchor="middle" style="">2,5 m</text>
<line x1="1420.0" y1="1246.0" x2="1420.0" y2="1324.0" stroke="#7a3fb8" stroke-width="1.4" opacity="0.5"/>
<line x1="1510.0" y1="1246.0" x2="1510.0" y2="1324.0" stroke="#7a3fb8" stroke-width="1.4" opacity="0.5"/>
<line x1="1420.0" y1="1324.0" x2="1510.0" y2="1324.0" stroke="#7a3fb8" stroke-width="2.2" marker-start="url(#sg)" marker-end="url(#sg)"/>
<text x="1465.0" y="1313.0" font-family="Helvetica,Arial,sans-serif" font-size="25" font-weight="600" fill="#7a3fb8" text-anchor="middle" style="">1,5 m</text>
<line x1="1510.0" y1="1246.0" x2="1510.0" y2="1324.0" stroke="#7a3fb8" stroke-width="1.4" opacity="0.5"/>
<line x1="1810.0" y1="1246.0" x2="1810.0" y2="1324.0" stroke="#7a3fb8" stroke-width="1.4" opacity="0.5"/>
<line x1="1510.0" y1="1324.0" x2="1810.0" y2="1324.0" stroke="#7a3fb8" stroke-width="2.2" marker-start="url(#sg)" marker-end="url(#sg)"/>
<text x="1660.0" y="1313.0" font-family="Helvetica,Arial,sans-serif" font-size="25" font-weight="600" fill="#7a3fb8" text-anchor="middle" style="">5 m</text>
<g transform="translate(202.0,202.0)"><path d="M 0 -34 L 12 20 L 0 10 L -12 20 z" fill="#3b4149"/><text x="0" y="46" font-family="Helvetica,Arial,sans-serif" font-size="24" font-weight="700" fill="#3b4149" text-anchor="middle">N</text></g>
<text x="130.0" y="62.0" font-family="Helvetica,Arial,sans-serif" font-size="38" font-weight="700" fill="#141414" text-anchor="start">Casa Dealu Negru — zona wellness, plan rev. 2</text>
<text x="130.0" y="98.0" font-family="Helvetica,Arial,sans-serif" font-size="24" font-weight="400" fill="#6b7076" text-anchor="start">8 compartimente, 25 x 6 m bara + 10 x 12 m aripa, scara 1:100 la 60 px/m</text>
<text x="130.0" y="1572.0" font-family="Helvetica,Arial,sans-serif" font-size="27" font-weight="700" fill="#141414" text-anchor="start">Cod de culoare</text>
<line x1="130.0" y1="1606.0" x2="196.0" y2="1606.0" stroke="#141414" stroke-width="11"/>
<text x="214.0" y="1614.0" font-family="Helvetica,Arial,sans-serif" font-size="23" font-weight="400" fill="#33383f" text-anchor="start">perete plin</text>
<line x1="130.0" y1="1644.0" x2="196.0" y2="1644.0" stroke="#22b3f0" stroke-width="11"/>
<text x="214.0" y="1652.0" font-family="Helvetica,Arial,sans-serif" font-size="23" font-weight="400" fill="#33383f" text-anchor="start">vitraj retractabil</text>
<line x1="130.0" y1="1682.0" x2="196.0" y2="1682.0" stroke="#2b3fc4" stroke-width="11"/>
<text x="214.0" y="1690.0" font-family="Helvetica,Arial,sans-serif" font-size="23" font-weight="400" fill="#33383f" text-anchor="start">vitraj fix</text>
<line x1="130.0" y1="1720.0" x2="196.0" y2="1720.0" stroke="#c1121f" stroke-width="11"/>
<text x="214.0" y="1728.0" font-family="Helvetica,Arial,sans-serif" font-size="23" font-weight="400" fill="#33383f" text-anchor="start">usa</text>
<text x="530.0" y="1572.0" font-family="Helvetica,Arial,sans-serif" font-size="27" font-weight="700" fill="#141414" text-anchor="start">Suprafete</text>
<text x="530.0" y="1614.0" font-family="Helvetica,Arial,sans-serif" font-size="22" font-weight="400" fill="#33383f" text-anchor="start">1  BBQ + bucatarie + masa</text>
<text x="990.0" y="1614.0" font-family="Helvetica,Arial,sans-serif" font-size="22" font-weight="400" fill="#6b7076" text-anchor="end">7,0 x 6,0</text>
<text x="1140.0" y="1614.0" font-family="Helvetica,Arial,sans-serif" font-size="22" font-weight="400" fill="#33383f" text-anchor="end">42,0 m2</text>
<text x="530.0" y="1646.0" font-family="Helvetica,Arial,sans-serif" font-size="22" font-weight="400" fill="#33383f" text-anchor="start">2  piscina</text>
<text x="990.0" y="1646.0" font-family="Helvetica,Arial,sans-serif" font-size="22" font-weight="400" fill="#6b7076" text-anchor="end">8,0 x 6,0</text>
<text x="1140.0" y="1646.0" font-family="Helvetica,Arial,sans-serif" font-size="22" font-weight="400" fill="#33383f" text-anchor="end">48,0 m2</text>
<text x="530.0" y="1678.0" font-family="Helvetica,Arial,sans-serif" font-size="22" font-weight="400" fill="#33383f" text-anchor="start">3  fitness</text>
<text x="990.0" y="1678.0" font-family="Helvetica,Arial,sans-serif" font-size="22" font-weight="400" fill="#6b7076" text-anchor="end">5,0 x 5,0</text>
<text x="1140.0" y="1678.0" font-family="Helvetica,Arial,sans-serif" font-size="22" font-weight="400" fill="#33383f" text-anchor="end">25,0 m2</text>
<text x="530.0" y="1710.0" font-family="Helvetica,Arial,sans-serif" font-size="22" font-weight="400" fill="#33383f" text-anchor="start">4  hol</text>
<text x="990.0" y="1710.0" font-family="Helvetica,Arial,sans-serif" font-size="22" font-weight="400" fill="#6b7076" text-anchor="end">1,0 x 12,0</text>
<text x="1140.0" y="1710.0" font-family="Helvetica,Arial,sans-serif" font-size="22" font-weight="400" fill="#33383f" text-anchor="end">12,0 m2</text>
<text x="530.0" y="1742.0" font-family="Helvetica,Arial,sans-serif" font-size="22" font-weight="400" fill="#33383f" text-anchor="start">5  relaxare</text>
<text x="990.0" y="1742.0" font-family="Helvetica,Arial,sans-serif" font-size="22" font-weight="400" fill="#6b7076" text-anchor="end">9,0 x 7,0 - baia</text>
<text x="1140.0" y="1742.0" font-family="Helvetica,Arial,sans-serif" font-size="22" font-weight="400" fill="#33383f" text-anchor="end">56,2 m2</text>
<text x="530.0" y="1774.0" font-family="Helvetica,Arial,sans-serif" font-size="22" font-weight="400" fill="#33383f" text-anchor="start">6  sauna, cu cabina de 2,5 x 2,0</text>
<text x="990.0" y="1774.0" font-family="Helvetica,Arial,sans-serif" font-size="22" font-weight="400" fill="#6b7076" text-anchor="end">4,0 x 5,0</text>
<text x="1140.0" y="1774.0" font-family="Helvetica,Arial,sans-serif" font-size="22" font-weight="400" fill="#33383f" text-anchor="end">20,0 m2</text>
<text x="530.0" y="1806.0" font-family="Helvetica,Arial,sans-serif" font-size="22" font-weight="400" fill="#33383f" text-anchor="start">8  bai: 2 dusuri, 2 WC, 2 chiuvete</text>
<text x="990.0" y="1806.0" font-family="Helvetica,Arial,sans-serif" font-size="22" font-weight="400" fill="#6b7076" text-anchor="end">2,0 x 3,4</text>
<text x="1140.0" y="1806.0" font-family="Helvetica,Arial,sans-serif" font-size="22" font-weight="400" fill="#33383f" text-anchor="end">6,8 m2</text>
<text x="530.0" y="1838.0" font-family="Helvetica,Arial,sans-serif" font-size="22" font-weight="400" fill="#33383f" text-anchor="start">7  terasa jacuzzi (exterior)</text>
<text x="990.0" y="1838.0" font-family="Helvetica,Arial,sans-serif" font-size="22" font-weight="400" fill="#6b7076" text-anchor="end">6,0 x 3,0</text>
<text x="1140.0" y="1838.0" font-family="Helvetica,Arial,sans-serif" font-size="22" font-weight="400" fill="#33383f" text-anchor="end">18,0 m2</text>
<line x1="530.0" y1="1862.0" x2="1140.0" y2="1862.0" stroke="#c9ced4" stroke-width="1.6"/>
<text x="530.0" y="1884.0" font-family="Helvetica,Arial,sans-serif" font-size="22" font-weight="700" fill="#141414" text-anchor="start">construit sub acoperis</text>
<text x="1140.0" y="1884.0" font-family="Helvetica,Arial,sans-serif" font-size="22" font-weight="700" fill="#141414" text-anchor="end">210,0 m2</text>
<text x="1360.0" y="1572.0" font-family="Helvetica,Arial,sans-serif" font-size="27" font-weight="700" fill="#141414" text-anchor="start">Note</text>
<text x="1360.0" y="1614.0" font-family="Helvetica,Arial,sans-serif" font-size="21" font-weight="400" fill="#33383f" text-anchor="start">Cotele cu mov continuu sunt cele scrise pe schita.</text>
<text x="1360.0" y="1646.0" font-family="Helvetica,Arial,sans-serif" font-size="21" font-weight="400" fill="#33383f" text-anchor="start">Cotele punctate ies din scadere si raman de confirmat.</text>
<text x="1360.0" y="1678.0" font-family="Helvetica,Arial,sans-serif" font-size="21" font-weight="400" fill="#33383f" text-anchor="start">1 si 2 sunt un singur spatiu, fara perete intre ele.</text>
<text x="1360.0" y="1710.0" font-family="Helvetica,Arial,sans-serif" font-size="21" font-weight="400" fill="#33383f" text-anchor="start">Baia: fasie de 1,0 m cu chiuvetele, plus 4 cabine de 1,0 m adancime</text>
<text x="1360.0" y="1742.0" font-family="Helvetica,Arial,sans-serif" font-size="21" font-weight="400" fill="#33383f" text-anchor="start">   (dus 90, WC 80, WC 80, dus 90 cm), in total 2,0 x 3,4 m.</text>
<text x="1360.0" y="1774.0" font-family="Helvetica,Arial,sans-serif" font-size="21" font-weight="400" fill="#33383f" text-anchor="start">Vitrajele sunt preluate din prima schita; a doua nu le mai coloreaza.</text>
<text x="1360.0" y="1806.0" font-family="Helvetica,Arial,sans-serif" font-size="21" font-weight="400" fill="#33383f" text-anchor="start">3 nu are usa desenata: singurul acces ramane prin 6.</text>
<text x="1360.0" y="1838.0" font-family="Helvetica,Arial,sans-serif" font-size="21" font-weight="400" fill="#33383f" text-anchor="start">Nordul este in sus; fatadele lungi ale barei privesc nord si sud.</text>
</svg>