<svg xmlns="http://www.w3.org/2000/svg" width="1990" height="1862" viewBox="0 0 1990 1862">
<defs><marker id="sg" viewBox="0 0 10 10" refX="5" refY="5" markerWidth="7" markerHeight="7" orient="auto-start-reverse"><path d="M 0 0 L 10 5 L 0 10 z" fill="#7a3fb8"/></marker></defs>
<rect width="1990" height="1862" fill="#ffffff"/>
<g stroke="#eceef1" stroke-width="1">
<line x1="141.4" y1="115.0" x2="141.4" y2="1276.6" />
<line x1="185.4" y1="115.0" x2="185.4" y2="1276.6" />
<line x1="229.4" y1="115.0" x2="229.4" y2="1276.6" />
<line x1="273.4" y1="115.0" x2="273.4" y2="1276.6" />
<line x1="317.4" y1="115.0" x2="317.4" y2="1276.6" />
<line x1="361.4" y1="115.0" x2="361.4" y2="1276.6" />
<line x1="405.4" y1="115.0" x2="405.4" y2="1276.6" />
<line x1="449.4" y1="115.0" x2="449.4" y2="1276.6" />
<line x1="493.4" y1="115.0" x2="493.4" y2="1276.6" />
<line x1="537.4" y1="115.0" x2="537.4" y2="1276.6" />
<line x1="581.4" y1="115.0" x2="581.4" y2="1276.6" />
<line x1="625.4" y1="115.0" x2="625.4" y2="1276.6" />
<line x1="669.4" y1="115.0" x2="669.4" y2="1276.6" />
<line x1="713.4" y1="115.0" x2="713.4" y2="1276.6" />
<line x1="757.4" y1="115.0" x2="757.4" y2="1276.6" />
<line x1="801.4" y1="115.0" x2="801.4" y2="1276.6" />
<line x1="845.4" y1="115.0" x2="845.4" y2="1276.6" />
<line x1="889.4" y1="115.0" x2="889.4" y2="1276.6" />
<line x1="933.4" y1="115.0" x2="933.4" y2="1276.6" />
<line x1="977.4" y1="115.0" x2="977.4" y2="1276.6" />
<line x1="1021.4" y1="115.0" x2="1021.4" y2="1276.6" />
<line x1="1065.4" y1="115.0" x2="1065.4" y2="1276.6" />
<line x1="1109.4" y1="115.0" x2="1109.4" y2="1276.6" />
<line x1="1153.4" y1="115.0" x2="1153.4" y2="1276.6" />
<line x1="1197.4" y1="115.0" x2="1197.4" y2="1276.6" />
<line x1="1241.4" y1="115.0" x2="1241.4" y2="1276.6" />
<line x1="1285.4" y1="115.0" x2="1285.4" y2="1276.6" />
<line x1="1329.4" y1="115.0" x2="1329.4" y2="1276.6" />
<line x1="115.0" y1="123.8" x2="1355.8" y2="123.8" />
<line x1="115.0" y1="167.8" x2="1355.8" y2="167.8" />
<line x1="115.0" y1="211.8" x2="1355.8" y2="211.8" />
<line x1="115.0" y1="255.8" x2="1355.8" y2="255.8" />
<line x1="115.0" y1="299.8" x2="1355.8" y2="299.8" />
<line x1="115.0" y1="343.8" x2="1355.8" y2="343.8" />
<line x1="115.0" y1="387.8" x2="1355.8" y2="387.8" />
<line x1="115.0" y1="431.8" x2="1355.8" y2="431.8" />
<line x1="115.0" y1="475.8" x2="1355.8" y2="475.8" />
<line x1="115.0" y1="519.8" x2="1355.8" y2="519.8" />
<line x1="115.0" y1="563.8" x2="1355.8" y2="563.8" />
<line x1="115.0" y1="607.8" x2="1355.8" y2="607.8" />
<line x1="115.0" y1="651.8" x2="1355.8" y2="651.8" />
<line x1="115.0" y1="695.8" x2="1355.8" y2="695.8" />
<line x1="115.0" y1="739.8" x2="1355.8" y2="739.8" />
<line x1="115.0" y1="783.8" x2="1355.8" y2="783.8" />
<line x1="115.0" y1="827.8" x2="1355.8" y2="827.8" />
<line x1="115.0" y1="871.8" x2="1355.8" y2="871.8" />
<line x1="115.0" y1="915.8" x2="1355.8" y2="915.8" />
<line x1="115.0" y1="959.8" x2="1355.8" y2="959.8" />
<line x1="115.0" y1="1003.8" x2="1355.8" y2="1003.8" />
<line x1="115.0" y1="1047.8" x2="1355.8" y2="1047.8" />
<line x1="115.0" y1="1091.8" x2="1355.8" y2="1091.8" />
<line x1="115.0" y1="1135.8" x2="1355.8" y2="1135.8" />
<line x1="115.0" y1="1179.8" x2="1355.8" y2="1179.8" />
<line x1="115.0" y1="1223.8" x2="1355.8" y2="1223.8" />
<line x1="115.0" y1="1267.8" x2="1355.8" y2="1267.8" />
</g>
<rect x="185.4" y="651.8" width="836.0" height="264.0" fill="#fbf7ef" stroke="none"/>
<rect x="1021.4" y="387.8" width="264.0" height="528.0" fill="#fbf7ef" stroke="none"/>
<rect x="849.8" y="387.8" width="154.0" height="264.0" fill="#fdeef3" stroke="none"/>
<rect x="185.4" y="915.8" width="836.0" height="303.6" fill="#f6ece5" stroke="none"/>
<line x1="185.4" y1="1171.0" x2="233.8" y2="1219.4" stroke="#c08a68" stroke-width="2.0" opacity="0.75"/>
<line x1="185.4" y1="1122.6" x2="282.2" y2="1219.4" stroke="#c08a68" stroke-width="2.0" opacity="0.75"/>
<line x1="185.4" y1="1074.2" x2="330.6" y2="1219.4" stroke="#c08a68" stroke-width="2.0" opacity="0.75"/>
<line x1="185.4" y1="1025.8" x2="379.0" y2="1219.4" stroke="#c08a68" stroke-width="2.0" opacity="0.75"/>
<line x1="185.4" y1="977.4" x2="427.4" y2="1219.4" stroke="#c08a68" stroke-width="2.0" opacity="0.75"/>
<line x1="185.4" y1="929.0" x2="475.8" y2="1219.4" stroke="#c08a68" stroke-width="2.0" opacity="0.75"/>
<line x1="220.6" y1="915.8" x2="524.2" y2="1219.4" stroke="#c08a68" stroke-width="2.0" opacity="0.75"/>
<line x1="269.0" y1="915.8" x2="572.6" y2="1219.4" stroke="#c08a68" stroke-width="2.0" opacity="0.75"/>
<line x1="317.4" y1="915.8" x2="621.0" y2="1219.4" stroke="#c08a68" stroke-width="2.0" opacity="0.75"/>
<line x1="365.8" y1="915.8" x2="669.4" y2="1219.4" stroke="#c08a68" stroke-width="2.0" opacity="0.75"/>
<line x1="414.2" y1="915.8" x2="717.8" y2="1219.4" stroke="#c08a68" stroke-width="2.0" opacity="0.75"/>
<line x1="462.6" y1="915.8" x2="766.2" y2="1219.4" stroke="#c08a68" stroke-width="2.0" opacity="0.75"/>
<line x1="511.0" y1="915.8" x2="814.6" y2="1219.4" stroke="#c08a68" stroke-width="2.0" opacity="0.75"/>
<line x1="559.4" y1="915.8" x2="863.0" y2="1219.4" stroke="#c08a68" stroke-width="2.0" opacity="0.75"/>
<line x1="607.8" y1="915.8" x2="911.4" y2="1219.4" stroke="#c08a68" stroke-width="2.0" opacity="0.75"/>
<line x1="656.2" y1="915.8" x2="959.8" y2="1219.4" stroke="#c08a68" stroke-width="2.0" opacity="0.75"/>
<line x1="704.6" y1="915.8" x2="1008.2" y2="1219.4" stroke="#c08a68" stroke-width="2.0" opacity="0.75"/>
<line x1="753.0" y1="915.8" x2="1021.4" y2="1184.2" stroke="#c08a68" stroke-width="2.0" opacity="0.75"/>
<line x1="801.4" y1="915.8" x2="1021.4" y2="1135.8" stroke="#c08a68" stroke-width="2.0" opacity="0.75"/>
<line x1="849.8" y1="915.8" x2="1021.4" y2="1087.4" stroke="#c08a68" stroke-width="2.0" opacity="0.75"/>
<line x1="898.2" y1="915.8" x2="1021.4" y2="1039.0" stroke="#c08a68" stroke-width="2.0" opacity="0.75"/>
<line x1="946.6" y1="915.8" x2="1021.4" y2="990.6" stroke="#c08a68" stroke-width="2.0" opacity="0.75"/>
<line x1="995.0" y1="915.8" x2="1021.4" y2="942.2" stroke="#c08a68" stroke-width="2.0" opacity="0.75"/>
<rect x="185.4" y="915.8" width="836.0" height="303.6" fill="none" stroke="#a9714f" stroke-width="6"/>
<line x1="185.4" y1="651.8" x2="849.8" y2="651.8" stroke="#141414" stroke-width="8" stroke-linecap="butt"/>
<line x1="1003.8" y1="651.8" x2="1021.4" y2="651.8" stroke="#141414" stroke-width="8" stroke-linecap="butt"/>
<line x1="185.4" y1="651.8" x2="185.4" y2="915.8" stroke="#141414" stroke-width="8" stroke-linecap="butt"/>
<line x1="185.4" y1="915.8" x2="1021.4" y2="915.8" stroke="#141414" stroke-width="8" stroke-linecap="butt"/>
<line x1="1021.4" y1="651.8" x2="1021.4" y2="832.2" stroke="#141414" stroke-width="8" stroke-linecap="butt"/>
<line x1="1021.4" y1="880.6" x2="1021.4" y2="915.8" stroke="#141414" stroke-width="8" stroke-linecap="butt"/>
<line x1="1021.4" y1="387.8" x2="1285.4" y2="387.8" stroke="#141414" stroke-width="8" stroke-linecap="butt"/>
<line x1="1285.4" y1="387.8" x2="1285.4" y2="915.8" stroke="#141414" stroke-width="8" stroke-linecap="butt"/>
<line x1="1021.4" y1="915.8" x2="1285.4" y2="915.8" stroke="#141414" stroke-width="8" stroke-linecap="butt"/>
<line x1="1021.4" y1="387.8" x2="1021.4" y2="651.8" stroke="#141414" stroke-width="8" stroke-linecap="butt"/>
<rect x="849.8" y="387.8" width="154.0" height="264.0" fill="none" stroke="#e8779f" stroke-width="6"/>
<line x1="926.8" y1="409.8" x2="926.8" y2="629.8" stroke="#e8779f" stroke-width="2.4" stroke-dasharray="12 8"/>
<path d="M 926.8 629.8 l -9 -16 l 9 6 l 9 -6 z" fill="#e8779f"/>
<line x1="865.2" y1="412.0" x2="988.4" y2="412.0" stroke="#e8779f" stroke-width="1.6" opacity="0.6"/>
<line x1="865.2" y1="453.8" x2="988.4" y2="453.8" stroke="#e8779f" stroke-width="1.6" opacity="0.6"/>
<line x1="865.2" y1="495.6" x2="988.4" y2="495.6" stroke="#e8779f" stroke-width="1.6" opacity="0.6"/>
<line x1="865.2" y1="537.4" x2="988.4" y2="537.4" stroke="#e8779f" stroke-width="1.6" opacity="0.6"/>
<line x1="865.2" y1="579.2" x2="988.4" y2="579.2" stroke="#e8779f" stroke-width="1.6" opacity="0.6"/>
<line x1="865.2" y1="621.0" x2="988.4" y2="621.0" stroke="#e8779f" stroke-width="1.6" opacity="0.6"/>
<rect x="911.4" y="832.2" width="154.0" height="48.4" fill="#e8f6fc" stroke="#3fa9d4" stroke-width="5"/>
<line x1="921.7" y1="832.2" x2="921.7" y2="880.6" stroke="#3fa9d4" stroke-width="1.8"/>
<line x1="931.9" y1="832.2" x2="931.9" y2="880.6" stroke="#3fa9d4" stroke-width="1.8"/>
<line x1="942.2" y1="832.2" x2="942.2" y2="880.6" stroke="#3fa9d4" stroke-width="1.8"/>
<line x1="952.5" y1="832.2" x2="952.5" y2="880.6" stroke="#3fa9d4" stroke-width="1.8"/>
<line x1="962.7" y1="832.2" x2="962.7" y2="880.6" stroke="#3fa9d4" stroke-width="1.8"/>
<line x1="973.0" y1="832.2" x2="973.0" y2="880.6" stroke="#3fa9d4" stroke-width="1.8"/>
<line x1="983.3" y1="832.2" x2="983.3" y2="880.6" stroke="#3fa9d4" stroke-width="1.8"/>
<line x1="993.5" y1="832.2" x2="993.5" y2="880.6" stroke="#3fa9d4" stroke-width="1.8"/>
<line x1="1003.8" y1="832.2" x2="1003.8" y2="880.6" stroke="#3fa9d4" stroke-width="1.8"/>
<line x1="1014.1" y1="832.2" x2="1014.1" y2="880.6" stroke="#3fa9d4" stroke-width="1.8"/>
<line x1="1024.3" y1="832.2" x2="1024.3" y2="880.6" stroke="#3fa9d4" stroke-width="1.8"/>
<line x1="1034.6" y1="832.2" x2="1034.6" y2="880.6" stroke="#3fa9d4" stroke-width="1.8"/>
<line x1="1044.9" y1="832.2" x2="1044.9" y2="880.6" stroke="#3fa9d4" stroke-width="1.8"/>
<line x1="1055.1" y1="832.2" x2="1055.1" y2="880.6" stroke="#3fa9d4" stroke-width="1.8"/>
<path d="M 1050.0 856.4 l -15 -9 l 6 9 l -6 9 z" fill="#3fa9d4"/>
<line x1="845.4" y1="915.8" x2="889.4" y2="915.8" stroke="#ffffff" stroke-width="12"/>
<line x1="845.4" y1="915.8" x2="889.4" y2="915.8" stroke="#c1121f" stroke-width="8"/>
<line x1="867.4" y1="915.8" x2="867.4" y2="856.4" stroke="#1f7a4d" stroke-width="3.0" stroke-dasharray="11 8" fill="none"/>
<line x1="867.4" y1="856.4" x2="911.4" y2="856.4" stroke="#1f7a4d" stroke-width="3.0" stroke-dasharray="11 8" fill="none"/>
<text x="783.8" y="843.2" font-family="Helvetica,Arial,sans-serif" font-size="18" font-weight="600" fill="#1f7a4d" text-anchor="middle" style="">traseu de iarna</text>
<g fill="none">
<rect x="1021.4" y="255.8" width="264.0" height="132.0" fill="none" stroke="#a8adb5" stroke-width="1.6" stroke-dasharray="7 6"/>
<circle cx="1153.4" cy="277.8" r="99.0" fill="none" stroke="#a8adb5" stroke-width="1.6" stroke-dasharray="7 6"/>
<rect x="691.4" y="453.8" width="264.0" height="132.0" fill="#eaf4fa" stroke="#8fb6cc" stroke-width="2.6" stroke-dasharray="8 6"/>
<text x="757.4" y="524.2" font-family="Helvetica,Arial,sans-serif" font-size="19" font-weight="600" fill="#6f959f" text-anchor="middle" style="">bazin</text>
<line x1="185.4" y1="387.8" x2="185.4" y2="651.8" stroke="#a8adb5" stroke-width="4.4" opacity="0.85"/>
<line x1="185.4" y1="387.8" x2="1021.4" y2="387.8" stroke="#a8adb5" stroke-width="3.0" opacity="0.85"/>
<line x1="185.4" y1="651.8" x2="1021.4" y2="651.8" stroke="#a8adb5" stroke-width="3.0" opacity="0.85"/>
<line x1="1021.4" y1="387.8" x2="1021.4" y2="915.8" stroke="#a8adb5" stroke-width="4.4" opacity="0.85"/>
<line x1="1021.4" y1="915.8" x2="1285.4" y2="915.8" stroke="#a8adb5" stroke-width="4.4" opacity="0.85"/>
<line x1="1021.4" y1="387.8" x2="1065.4" y2="387.8" stroke="#a8adb5" stroke-width="4.4" opacity="0.85"/>
<line x1="1065.4" y1="387.8" x2="1285.4" y2="387.8" stroke="#a8adb5" stroke-width="3.0" opacity="0.85"/>
<line x1="1285.4" y1="387.8" x2="1285.4" y2="695.8" stroke="#a8adb5" stroke-width="3.0" opacity="0.85"/>
<line x1="1285.4" y1="695.8" x2="1285.4" y2="915.8" stroke="#a8adb5" stroke-width="3.0" opacity="0.85"/>
<line x1="1065.4" y1="387.8" x2="1065.4" y2="915.8" stroke="#a8adb5" stroke-width="4.4" opacity="0.85"/>
<line x1="1065.4" y1="695.8" x2="1285.4" y2="695.8" stroke="#a8adb5" stroke-width="4.4" opacity="0.85"/>
<line x1="1065.4" y1="827.8" x2="1175.4" y2="827.8" stroke="#a8adb5" stroke-width="4.4" opacity="0.85"/>
<line x1="1175.4" y1="827.8" x2="1175.4" y2="915.8" stroke="#a8adb5" stroke-width="4.4" opacity="0.85"/>
<line x1="1065.4" y1="533.0" x2="1153.4" y2="533.0" stroke="#a8adb5" stroke-width="4.4" opacity="0.85"/>
<line x1="1065.4" y1="682.6" x2="1153.4" y2="682.6" stroke="#a8adb5" stroke-width="4.4" opacity="0.85"/>
<line x1="1153.4" y1="533.0" x2="1153.4" y2="682.6" stroke="#a8adb5" stroke-width="4.4" opacity="0.85"/>
</g>
<circle cx="405.4" cy="519.8" r="20.2" fill="#ffffff" stroke="#a8adb5" stroke-width="1.8"/>
<text x="405.4" y="526.8" font-family="Helvetica,Arial,sans-serif" font-size="20" font-weight="700" fill="#6f757d" text-anchor="middle" style="">1</text>
<circle cx="660.6" cy="621.0" r="20.2" fill="#ffffff" stroke="#a8adb5" stroke-width="1.8"/>
<text x="660.6" y="628.0" font-family="Helvetica,Arial,sans-serif" font-size="20" font-weight="700" fill="#6f757d" text-anchor="middle" style="">2</text>
<circle cx="1223.8" cy="748.6" r="20.2" fill="#ffffff" stroke="#a8adb5" stroke-width="1.8"/>
<text x="1223.8" y="755.6" font-family="Helvetica,Arial,sans-serif" font-size="20" font-weight="700" fill="#6f757d" text-anchor="middle" style="">3</text>
<circle cx="1043.4" cy="585.8" r="20.2" fill="#ffffff" stroke="#a8adb5" stroke-width="1.8"/>
<text x="1043.4" y="592.8" font-family="Helvetica,Arial,sans-serif" font-size="20" font-weight="700" fill="#6f757d" text-anchor="middle" style="">4</text>
<circle cx="1223.8" cy="458.2" r="20.2" fill="#ffffff" stroke="#a8adb5" stroke-width="1.8"/>
<text x="1223.8" y="465.2" font-family="Helvetica,Arial,sans-serif" font-size="20" font-weight="700" fill="#6f757d" text-anchor="middle" style="">5</text>
<circle cx="1118.2" cy="880.6" r="20.2" fill="#ffffff" stroke="#a8adb5" stroke-width="1.8"/>
<text x="1118.2" y="887.6" font-family="Helvetica,Arial,sans-serif" font-size="20" font-weight="700" fill="#6f757d" text-anchor="middle" style="">6</text>
<circle cx="1109.4" cy="607.8" r="20.2" fill="#ffffff" stroke="#a8adb5" stroke-width="1.8"/>
<text x="1109.4" y="614.8" font-family="Helvetica,Arial,sans-serif" font-size="20" font-weight="700" fill="#6f757d" text-anchor="middle" style="">8</text>
<circle cx="1153.4" cy="211.8" r="20.2" fill="#ffffff" stroke="#a8adb5" stroke-width="1.8"/>
<text x="1153.4" y="218.8" font-family="Helvetica,Arial,sans-serif" font-size="20" font-weight="700" fill="#6f757d" text-anchor="middle" style="">7</text>
<circle cx="924.6" cy="519.8" r="22.0" fill="#d1600f" stroke="#ffffff" stroke-width="2"/>
<text x="924.6" y="527.8" font-family="Helvetica,Arial,sans-serif" font-size="22" font-weight="700" fill="#ffffff" text-anchor="middle" style="">A</text>
<circle cx="986.2" cy="856.4" r="22.0" fill="#d1600f" stroke="#ffffff" stroke-width="2"/>
<text x="986.2" y="864.4" font-family="Helvetica,Arial,sans-serif" font-size="22" font-weight="700" fill="#ffffff" text-anchor="middle" style="">B</text>
<text x="603.4" y="766.2" font-family="Helvetica,Arial,sans-serif" font-size="44" font-weight="700" fill="#1d2126" text-anchor="middle" style="opacity:0.20">CAM. D</text>
<text x="603.4" y="799.2" font-family="Helvetica,Arial,sans-serif" font-size="22" font-weight="600" fill="#3b4149" text-anchor="middle" style="">depozitare + garaj</text>
<text x="1179.8" y="528.6" font-family="Helvetica,Arial,sans-serif" font-size="40" font-weight="700" fill="#1d2126" text-anchor="middle" style="opacity:0.22">CAM. J</text>
<text x="1179.8" y="559.4" font-family="Helvetica,Arial,sans-serif" font-size="21" font-weight="600" fill="#3b4149" text-anchor="middle" style="">joaca</text>
<text x="603.4" y="1074.2" font-family="Helvetica,Arial,sans-serif" font-size="26" font-weight="700" fill="#8a5638" text-anchor="middle" style="">CLADIREA EXISTENTA</text>
<text x="926.8" y="458.2" font-family="Helvetica,Arial,sans-serif" font-size="19" font-weight="600" fill="#e8779f" text-anchor="middle" style="">rampa</text>
<text x="687.0" y="948.8" font-family="Helvetica,Arial,sans-serif" font-size="19" font-weight="600" fill="#c1121f" text-anchor="middle" style="">usa camerei tehnice</text>
<line x1="797.0" y1="943.1" x2="863.0" y2="920.2" stroke="#c1121f" stroke-width="1.6"/>
<line x1="185.4" y1="915.8" x2="185.4" y2="973.0" stroke="#7a3fb8" stroke-width="1.4" opacity="0.5"/>
<line x1="1021.4" y1="915.8" x2="1021.4" y2="973.0" stroke="#7a3fb8" stroke-width="1.4" opacity="0.5"/>
<line x1="185.4" y1="973.0" x2="1021.4" y2="973.0" stroke="#7a3fb8" stroke-width="2.2" marker-start="url(#sg)" marker-end="url(#sg)" stroke-dasharray="9 6"/>
<text x="603.4" y="962.0" font-family="Helvetica,Arial,sans-serif" font-size="25" font-weight="600" fill="#7a3fb8" text-anchor="middle" style="">19 m</text>
<line x1="185.4" y1="651.8" x2="128.2" y2="651.8" stroke="#7a3fb8" stroke-width="1.4" opacity="0.5"/>
<line x1="185.4" y1="915.8" x2="128.2" y2="915.8" stroke="#7a3fb8" stroke-width="1.4" opacity="0.5"/>
<line x1="128.2" y1="651.8" x2="128.2" y2="915.8" stroke="#7a3fb8" stroke-width="2.2" marker-start="url(#sg)" marker-end="url(#sg)" stroke-dasharray="9 6"/>
<text x="128.2" y="791.8" font-family="Helvetica,Arial,sans-serif" font-size="25" font-weight="600" fill="#7a3fb8" text-anchor="middle" style="writing-mode:tb;glyph-orientation-vertical:0">6 m</text>
<line x1="1021.4" y1="915.8" x2="1021.4" y2="973.0" stroke="#7a3fb8" stroke-width="1.4" opacity="0.5"/>
<line x1="1285.4" y1="915.8" x2="1285.4" y2="973.0" stroke="#7a3fb8" stroke-width="1.4" opacity="0.5"/>
<line x1="1021.4" y1="973.0" x2="1285.4" y2="973.0" stroke="#7a3fb8" stroke-width="2.2" marker-start="url(#sg)" marker-end="url(#sg)" stroke-dasharray="9 6"/>
<text x="1153.4" y="962.0" font-family="Helvetica,Arial,sans-serif" font-size="25" font-weight="600" fill="#7a3fb8" text-anchor="middle" style="">6 m</text>
<line x1="1285.4" y1="387.8" x2="1347.0" y2="387.8" stroke="#7a3fb8" stroke-width="1.4" opacity="0.5"/>
<line x1="1285.4" y1="915.8" x2="1347.0" y2="915.8" stroke="#7a3fb8" stroke-width="1.4" opacity="0.5"/>
<line x1="1347.0" y1="387.8" x2="1347.0" y2="915.8" stroke="#7a3fb8" stroke-width="2.2" marker-start="url(#sg)" marker-end="url(#sg)" stroke-dasharray="9 6"/>
<text x="1347.0" y="659.8" font-family="Helvetica,Arial,sans-serif" font-size="25" font-weight="600" fill="#7a3fb8" text-anchor="middle" style="writing-mode:tb;glyph-orientation-vertical:0">12 m</text>
<line x1="849.8" y1="387.8" x2="849.8" y2="330.6" stroke="#7a3fb8" stroke-width="1.4" opacity="0.5"/>
<line x1="1003.8" y1="387.8" x2="1003.8" y2="330.6" stroke="#7a3fb8" stroke-width="1.4" opacity="0.5"/>
<line x1="849.8" y1="330.6" x2="1003.8" y2="330.6" stroke="#7a3fb8" stroke-width="2.2" marker-start="url(#sg)" marker-end="url(#sg)" stroke-dasharray="9 6"/>
<text x="926.8" y="319.6" font-family="Helvetica,Arial,sans-serif" font-size="25" font-weight="600" fill="#7a3fb8" text-anchor="middle" style="">3,5 m</text>
<line x1="911.4" y1="832.2" x2="911.4" y2="779.4" stroke="#7a3fb8" stroke-width="1.4" opacity="0.5"/>
<line x1="1065.4" y1="832.2" x2="1065.4" y2="779.4" stroke="#7a3fb8" stroke-width="1.4" opacity="0.5"/>
<line x1="911.4" y1="779.4" x2="1065.4" y2="779.4" stroke="#7a3fb8" stroke-width="2.2" marker-start="url(#sg)" marker-end="url(#sg)" stroke-dasharray="9 6"/>
<text x="988.4" y="768.4" font-family="Helvetica,Arial,sans-serif" font-size="25" font-weight="600" fill="#7a3fb8" text-anchor="middle" style="">3,5 m</text>
<line x1="185.4" y1="915.8" x2="128.2" y2="915.8" stroke="#7a3fb8" stroke-width="1.4" opacity="0.5"/>
<line x1="185.4" y1="1219.4" x2="128.2" y2="1219.4" stroke="#7a3fb8" stroke-width="1.4" opacity="0.5"/>
<line x1="128.2" y1="915.8" x2="128.2" y2="1219.4" stroke="#7a3fb8" stroke-width="2.2" marker-start="url(#sg)" marker-end="url(#sg)" stroke-dasharray="9 6"/>
<text x="128.2" y="1075.6" font-family="Helvetica,Arial,sans-serif" font-size="25" font-weight="600" fill="#7a3fb8" text-anchor="middle" style="writing-mode:tb;glyph-orientation-vertical:0">6,9 m</text>
<g transform="translate(150.2,150.2)"><path d="M 0 -30 L 11 18 L 0 9 L -11 18 z" fill="#3b4149"/><text x="0" y="41" font-family="Helvetica,Arial,sans-serif" font-size="22" font-weight="700" fill="#3b4149" text-anchor="middle">N</text></g>
<text x="115.0" y="58.0" font-family="Helvetica,Arial,sans-serif" font-size="36" font-weight="700" fill="#141414" text-anchor="start">Casa Dealu Negru — plan combinat, demisol + parter</text>
<text x="115.0" y="92.0" font-family="Helvetica,Arial,sans-serif" font-size="22" font-weight="400" fill="#6b7076" text-anchor="start">demisolul plin, partea de sus suprapusa in contur subtire; scara 1:100 la 44 px/m</text>
<text x="115.0" y="1427.6" font-family="Helvetica,Arial,sans-serif" font-size="26" font-weight="700" fill="#141414" text-anchor="start">Legenda</text>
<line x1="115.0" y1="1460.6" x2="173.0" y2="1460.6" stroke="#141414" stroke-width="10"/>
<text x="189.0" y="1467.6" font-family="Helvetica,Arial,sans-serif" font-size="21" font-weight="400" fill="#33383f" text-anchor="start">zid demisol</text>
<line x1="115.0" y1="1495.6" x2="173.0" y2="1495.6" stroke="#a8adb5" stroke-width="10"/>
<text x="189.0" y="1502.6" font-family="Helvetica,Arial,sans-serif" font-size="21" font-weight="400" fill="#33383f" text-anchor="start">conturul partii de sus</text>
<line x1="115.0" y1="1530.6" x2="173.0" y2="1530.6" stroke="#e8779f" stroke-width="10"/>
<text x="189.0" y="1537.6" font-family="Helvetica,Arial,sans-serif" font-size="21" font-weight="400" fill="#33383f" text-anchor="start">rampa auto</text>
<line x1="115.0" y1="1565.6" x2="173.0" y2="1565.6" stroke="#3fa9d4" stroke-width="10"/>
<text x="189.0" y="1572.6" font-family="Helvetica,Arial,sans-serif" font-size="21" font-weight="400" fill="#33383f" text-anchor="start">scara</text>
<line x1="115.0" y1="1600.6" x2="173.0" y2="1600.6" stroke="#c1121f" stroke-width="10"/>
<text x="189.0" y="1607.6" font-family="Helvetica,Arial,sans-serif" font-size="21" font-weight="400" fill="#33383f" text-anchor="start">usa camerei tehnice</text>
<line x1="115.0" y1="1635.6" x2="173.0" y2="1635.6" stroke="#a9714f" stroke-width="10"/>
<text x="189.0" y="1642.6" font-family="Helvetica,Arial,sans-serif" font-size="21" font-weight="400" fill="#33383f" text-anchor="start">cladirea existenta</text>
<line x1="115.0" y1="1670.6" x2="173.0" y2="1670.6" stroke="#1f7a4d" stroke-width="10"/>
<text x="189.0" y="1677.6" font-family="Helvetica,Arial,sans-serif" font-size="21" font-weight="400" fill="#33383f" text-anchor="start">traseul de iarna</text>
<text x="495.0" y="1427.6" font-family="Helvetica,Arial,sans-serif" font-size="26" font-weight="700" fill="#141414" text-anchor="start">Suprafete demisol</text>
<text x="495.0" y="1467.6" font-family="Helvetica,Arial,sans-serif" font-size="21" font-weight="400" fill="#33383f" text-anchor="start">CAM. D  depozitare + garaj</text>
<text x="945.0" y="1467.6" font-family="Helvetica,Arial,sans-serif" font-size="21" font-weight="400" fill="#6b7076" text-anchor="end">19,0 x 6,0</text>
<text x="1085.0" y="1467.6" font-family="Helvetica,Arial,sans-serif" font-size="21" font-weight="400" fill="#33383f" text-anchor="end">114,0 m2</text>
<text x="495.0" y="1498.6" font-family="Helvetica,Arial,sans-serif" font-size="21" font-weight="400" fill="#33383f" text-anchor="start">CAM. J  joaca: TV, biliard, ping-pong</text>
<text x="945.0" y="1498.6" font-family="Helvetica,Arial,sans-serif" font-size="21" font-weight="400" fill="#6b7076" text-anchor="end">6,0 x 12,0</text>
<text x="1085.0" y="1498.6" font-family="Helvetica,Arial,sans-serif" font-size="21" font-weight="400" fill="#33383f" text-anchor="end">72,0 m2</text>
<text x="495.0" y="1529.6" font-family="Helvetica,Arial,sans-serif" font-size="21" font-weight="400" fill="#33383f" text-anchor="start">rampa auto, pe sub bara</text>
<text x="945.0" y="1529.6" font-family="Helvetica,Arial,sans-serif" font-size="21" font-weight="400" fill="#6b7076" text-anchor="end">3,5 x 6,0</text>
<text x="1085.0" y="1529.6" font-family="Helvetica,Arial,sans-serif" font-size="21" font-weight="400" fill="#33383f" text-anchor="end">21,0 m2</text>
<text x="495.0" y="1560.6" font-family="Helvetica,Arial,sans-serif" font-size="21" font-weight="400" fill="#33383f" text-anchor="start">scara spre holul de sus</text>
<text x="945.0" y="1560.6" font-family="Helvetica,Arial,sans-serif" font-size="21" font-weight="400" fill="#6b7076" text-anchor="end">3,5 x 1,1</text>
<text x="1085.0" y="1560.6" font-family="Helvetica,Arial,sans-serif" font-size="21" font-weight="400" fill="#33383f" text-anchor="end">3,9 m2</text>
<text x="495.0" y="1591.6" font-family="Helvetica,Arial,sans-serif" font-size="21" font-weight="400" fill="#33383f" text-anchor="start">cladirea existenta (necotata)</text>
<text x="945.0" y="1591.6" font-family="Helvetica,Arial,sans-serif" font-size="21" font-weight="400" fill="#6b7076" text-anchor="end">19,0 x 6,9</text>
<text x="1085.0" y="1591.6" font-family="Helvetica,Arial,sans-serif" font-size="21" font-weight="400" fill="#33383f" text-anchor="end">131,1 m2</text>
<line x1="495.0" y1="1613.6" x2="1085.0" y2="1613.6" stroke="#c9ced4" stroke-width="1.6"/>
<text x="495.0" y="1634.6" font-family="Helvetica,Arial,sans-serif" font-size="21" font-weight="700" fill="#141414" text-anchor="start">demisol, fara rampa</text>
<text x="1085.0" y="1634.6" font-family="Helvetica,Arial,sans-serif" font-size="21" font-weight="700" fill="#141414" text-anchor="end">186,0 m2</text>
<text x="495.0" y="1664.6" font-family="Helvetica,Arial,sans-serif" font-size="21" font-weight="700" fill="#141414" text-anchor="start">parter, sub acoperis</text>
<text x="1085.0" y="1664.6" font-family="Helvetica,Arial,sans-serif" font-size="21" font-weight="700" fill="#141414" text-anchor="end">186,0 m2</text>
<text x="1245.0" y="1427.6" font-family="Helvetica,Arial,sans-serif" font-size="26" font-weight="700" fill="#141414" text-anchor="start">Note</text>
<text x="1245.0" y="1467.6" font-family="Helvetica,Arial,sans-serif" font-size="20" font-weight="400" fill="#33383f" text-anchor="start">Demisolul nu are nicio cota scrisa. Tot ce e mai jos s-a masurat</text>
<text x="1245.0" y="1497.6" font-family="Helvetica,Arial,sans-serif" font-size="20" font-weight="400" fill="#33383f" text-anchor="start">fata de conturul partii de sus, care are cote cunoscute.</text>
<text x="1245.0" y="1527.6" font-family="Helvetica,Arial,sans-serif" font-size="20" font-weight="400" fill="#d1600f" text-anchor="start">A  Rampa trece pe sub bazin. Bazinul coboara 1,45 m sub parter,</text>
<text x="1245.0" y="1557.6" font-family="Helvetica,Arial,sans-serif" font-size="20" font-weight="400" fill="#d1600f" text-anchor="start">   deci sub el raman 1,4 m liberi. O masina cere 2,2 m.</text>
<text x="1245.0" y="1587.6" font-family="Helvetica,Arial,sans-serif" font-size="20" font-weight="400" fill="#d1600f" text-anchor="start">B  Scara are 3,5 m de rampa pentru 3,1 m diferenta de nivel:</text>
<text x="1245.0" y="1617.6" font-family="Helvetica,Arial,sans-serif" font-size="20" font-weight="400" fill="#d1600f" text-anchor="start">   trepte de 22 cm. Pentru 25 cm ii trebuie 4,3 m.</text>
<text x="1245.0" y="1647.6" font-family="Helvetica,Arial,sans-serif" font-size="20" font-weight="400" fill="#33383f" text-anchor="start">Traseul de iarna: casa -> camera tehnica -> CAM. D -> scara -></text>
<text x="1245.0" y="1677.6" font-family="Helvetica,Arial,sans-serif" font-size="20" font-weight="400" fill="#33383f" text-anchor="start">   capatul de sud al holului de sus. Tot pe interior.</text>
<text x="1245.0" y="1707.6" font-family="Helvetica,Arial,sans-serif" font-size="20" font-weight="400" fill="#33383f" text-anchor="start">Deasupra lui CAM. J stau baile, sauna si sala: hidroizolatie</text>
<text x="1245.0" y="1737.6" font-family="Helvetica,Arial,sans-serif" font-size="20" font-weight="400" fill="#33383f" text-anchor="start">   si scurgeri de prevazut in placa.</text>
</svg>